<svg width="696" height="1932" viewBox="0 0 696 1932" fill="none" xmlns="http://www.w3.org/2000/svg">
<path d="M162.842 1926.2L162.842 1877.26L193.657 1875.1L197.809 1874.81L328.788 1865.61C334.7 1865.2 340.635 1865.2 346.547 1865.61L477.526 1874.81L483.421 1875.22L512.494 1877.26L512.494 1926.2C512.494 1929.15 514.89 1931.55 517.851 1931.55C520.622 1931.55 522.937 1929.44 523.185 1926.68L536.625 1776.86C541.161 1782.94 546.938 1788.04 553.635 1791.7C555.59 1792.77 557.643 1793.67 559.737 1794.49C563.185 1795.83 566.809 1796.81 570.569 1797.4C572.568 1797.72 574.599 1797.92 576.666 1798.01C577.392 1798.04 578.11 1798.12 578.846 1798.12L624.017 1798.12C650.161 1798.12 671.797 1779.06 675.949 1754.1L675.949 1754.09C676.175 1752.72 676.374 1751.34 676.495 1749.94C676.64 1748.45 676.726 1746.94 676.726 1745.41L676.726 1704.28L676.726 1607.1L676.726 1563.54C676.726 1562.37 676.626 1561.22 676.55 1560.07C675.11 1538.03 660.176 1519.68 639.89 1513.27L639.89 1120.83C639.89 1092.71 635.864 1064.87 628.052 1038.34C623.363 1022.42 617.311 1006.97 609.945 992.205L604.024 980.335L602.124 980.335C600.526 964.864 597.088 952.106 592.272 941.482L592.272 872.653C598.527 870.956 603.153 865.292 603.153 858.5L603.153 826.917C603.153 818.757 596.537 812.195 588.382 812.191C569.048 812.177 536.088 815.039 523.073 833.502C520.36 837.347 515.906 839.572 511.199 839.572L498.228 839.572C494.031 828.74 483.538 821.045 471.222 821.045L457.737 821.045C456.044 821.045 454.392 821.221 452.781 821.501C452.718 807.199 450.516 795.628 447.343 785.767C446.057 781.768 444.612 778.045 443.087 774.529C439.282 765.737 434.995 758.237 431.484 750.916C428.677 745.058 426.361 739.313 425.184 733.108L423.857 710.262L440.776 710.262C442.369 710.262 443.66 708.972 443.66 707.379L443.66 707.13C443.66 705.537 442.369 704.246 440.776 704.246L439.183 704.246L424.245 651.055C423.536 648.528 422.033 646.393 420.057 644.872L417.272 597.011L524.955 522.089L524.955 544.257L524.955 584.446C524.955 585.94 525.04 587.411 525.176 588.869C527.193 612.54 545.205 631.59 568.366 635.25C570.32 635.557 572.306 635.756 574.328 635.841C575.036 635.869 575.736 635.95 576.454 635.95L620.596 635.95C647.544 635.95 669.627 615.239 671.874 588.874C672.014 587.416 672.095 585.945 672.095 584.451L672.095 544.262L672.095 449.311L672.095 406.748C672.095 405.601 671.996 404.482 671.924 403.354C670.168 376.501 647.891 355.249 620.596 355.249L576.454 355.249C575.736 355.249 575.041 355.325 574.328 355.357C572.306 355.438 570.32 355.637 568.366 355.948C544.871 359.662 526.701 379.218 525.126 403.358C525.054 404.486 524.955 405.606 524.955 406.752L524.955 449.315L524.955 461.767L487.288 461.767C486.083 453.706 479.196 447.501 470.802 447.501L408.58 447.501L404.753 381.655L420.67 381.655C427.661 381.655 433.33 375.986 433.33 368.995L433.33 305.379C433.33 298.388 427.661 292.72 420.67 292.72L399.585 292.72L394.115 198.594L421.979 198.594L429.164 198.594C429.164 198.594 449.288 232.587 489.631 232.587C518.596 232.587 533.105 240.476 547.705 254.056C562.332 267.658 581.562 275.222 601.537 275.222L605.207 275.222C606.06 278.914 607.143 282.552 608.668 286.045L621.508 315.393L622.492 315.393C630.624 315.393 638.053 312.437 643.803 307.554C645.685 312.148 650.189 315.393 655.46 315.393C662.419 315.393 668.065 309.752 668.065 302.793L668.065 120.68C668.065 113.721 662.424 108.075 655.46 108.075L655.46 95.5377L630.498 95.5377L551.577 95.5377L388.131 95.5377L386.285 63.7836C384.814 38.5057 363.891 18.7654 338.573 18.7654C313.254 18.7654 292.327 38.5102 290.86 63.7836L289.014 95.5377L123.776 95.5377L44.8558 95.5377L19.8938 95.5377L19.8938 108.319C14.0764 109.438 9.68064 114.538 9.68064 120.68L9.68063 302.788C9.68063 309.747 15.322 315.389 22.2812 315.389C27.1598 315.389 31.3481 312.586 33.4422 308.529C39.1287 312.816 46.1781 315.389 53.8459 315.389L66.6856 286.04C68.2156 282.547 69.2987 278.905 70.1472 275.218L73.8163 275.218C93.7912 275.218 113.022 267.654 127.649 254.051C142.248 240.471 156.758 232.583 185.723 232.583C226.061 232.583 246.19 198.59 246.19 198.59L253.374 198.59L283.03 198.59L277.556 292.715L248.83 292.715C241.839 292.715 236.171 298.383 236.171 305.374L236.171 368.991C236.171 375.982 241.839 381.65 248.83 381.65L272.384 381.65L268.556 447.496L206.334 447.496C197.936 447.496 191.049 453.697 189.848 461.762L152.182 461.762L152.182 449.311L152.182 406.748C152.182 405.601 152.082 404.482 152.01 403.354C150.255 376.501 127.978 355.249 100.683 355.249L56.5401 355.249C55.8225 355.249 55.1276 355.325 54.4145 355.357C52.3927 355.438 50.4068 355.637 48.4527 355.948C24.9575 359.662 6.78778 379.218 5.2127 403.358C5.14049 404.486 5.04123 405.606 5.04123 406.752L5.04123 449.315L5.04123 544.266L5.04122 584.455C5.04122 585.949 5.12237 587.42 5.26228 588.878C7.27963 612.549 25.2914 631.599 48.4527 635.259C50.4068 635.566 52.3927 635.765 54.4145 635.85C55.1231 635.878 55.8225 635.959 56.5401 635.959L100.683 635.959C127.63 635.959 149.713 615.248 151.961 588.883C152.101 587.425 152.182 585.954 152.182 584.46L152.182 544.271L152.182 527.419L259.566 602.133L257.22 642.507C252.35 642.932 248.184 646.289 246.844 651.064L231.906 704.255L230.312 704.255C228.719 704.255 227.429 705.546 227.429 707.139L227.429 707.388C227.429 708.981 228.719 710.271 230.312 710.271L253.284 710.271L251.957 733.117C250.784 739.318 248.356 745.063 245.377 750.921C241.658 758.246 237.073 765.742 232.993 774.533C231.359 778.049 229.807 781.773 228.426 785.771C224.964 795.772 222.554 807.511 222.554 822.097C222.554 823.744 222.5 825.337 222.401 826.885C222.396 826.967 222.383 827.043 222.378 827.125C217.477 823.334 211.348 821.055 204.674 821.055L191.188 821.055C178.159 821.055 167.143 829.652 163.492 841.485C159.303 841.097 155.413 839.048 152.967 835.578C139.951 817.115 106.997 814.253 87.658 814.267C79.4983 814.271 72.8866 820.838 72.8866 828.993L72.8866 860.576C72.8866 864.534 74.4662 868.113 77.0116 870.757L77.0116 950.905L79.3809 950.905C76.0728 960.69 73.7666 972.004 72.7692 985.246L69.2942 992.214C61.9288 1006.98 55.8766 1022.43 51.1875 1038.35C43.3708 1064.88 39.3497 1092.72 39.3497 1120.84L39.3497 1512.61C17.8087 1518.26 1.67891 1537.14 0.176048 1560.07C0.0993252 1561.23 3.03849e-05 1562.37 3.03336e-05 1563.55L2.84295e-05 1607.11L2.41818e-05 1704.28L2.23839e-05 1745.41C2.2317e-05 1746.94 0.085748 1748.45 0.230167 1749.94C2.52733 1776.92 25.1289 1798.12 52.7084 1798.12L97.8846 1798.12C98.6202 1798.12 99.3333 1798.04 100.06 1798.01C102.127 1797.93 104.162 1797.73 106.162 1797.41C109.921 1796.81 113.545 1795.84 116.993 1794.49C119.087 1793.68 121.141 1792.77 123.095 1791.7C129.192 1788.38 134.54 1783.87 138.877 1778.51L152.168 1926.69C152.416 1929.45 154.732 1931.56 157.503 1931.56C160.445 1931.55 162.842 1929.15 162.842 1926.2ZM412.402 513.193L431.371 513.193L412.867 521.231L412.402 513.193ZM264.72 513.193L264.066 524.467L238.116 513.193L264.72 513.193ZM150.571 1681.84L150.756 1681.84L150.756 1683.36L155.26 1681.84L161.425 1681.84C162.53 1688.04 167.052 1693 172.978 1694.82L162.837 1695.49C162.828 1692.53 160.436 1690.15 157.485 1690.15L150.571 1690.15L150.571 1681.84ZM555.513 1516.32C539.108 1524.45 527.568 1540.83 526.309 1560.06C526.232 1561.22 526.133 1562.36 526.133 1563.54L526.133 1607.1L526.133 1644.2L518.564 1644.2C517.743 1638.71 514.281 1634.12 509.488 1631.74L525.947 1636.91L525.947 1613.83L476.759 1598.48C482.762 1573.65 489.432 1545.92 496.491 1516.33L555.513 1516.33L555.513 1516.32ZM469.141 1629.93C469.94 1626.64 470.757 1623.28 471.592 1619.84L504.542 1630.18C503.729 1630.06 502.922 1629.93 502.078 1629.93L469.141 1629.93ZM512.494 1695.49L506.158 1695.07C512.48 1693.48 517.364 1688.33 518.519 1681.84L521.448 1681.84L525.952 1683.36L525.952 1681.84L526.137 1681.84L526.137 1690.15L517.846 1690.15C514.895 1690.15 512.503 1692.54 512.494 1695.49ZM150.571 1607.1L150.571 1563.54C150.571 1562.36 150.471 1561.22 150.395 1560.06C149.135 1540.83 137.595 1524.45 121.19 1516.32L178.836 1516.32C185.935 1546.07 192.637 1573.95 198.667 1598.88L150.756 1613.83L150.756 1636.91L203.839 1620.24C204.637 1623.54 205.423 1626.77 206.19 1629.93L177.866 1629.93C169.467 1629.93 162.58 1636.13 161.375 1644.2L150.571 1644.2L150.571 1607.1ZM414.79 554.24L455.615 536.504L415.386 564.494L414.79 554.24ZM213.867 536.504L262.143 557.476L261.439 569.603L213.867 536.504Z" fill="#090909"/>
<path d="M589.529 1625.43L127.234 1625.43L127.234 1663.07L589.529 1663.07L589.529 1625.43Z" fill="#383838"/>
<path d="M520.85 1676.86L196.638 1676.86C187.395 1676.86 179.899 1669.36 179.899 1660.12L179.899 1627.9C179.899 1618.66 187.39 1611.16 196.638 1611.16L520.85 1611.16C530.093 1611.16 537.589 1618.65 537.589 1627.9L537.589 1660.12C537.589 1669.37 530.093 1676.86 520.85 1676.86Z" fill="#242424"/>
<path d="M248.284 845.561L95.7638 845.561L95.7638 932.127L248.284 932.127L248.284 845.561Z" fill="#B80002"/>
<path d="M611.037 845.562L458.517 845.562L458.517 932.127L611.037 932.127L611.037 845.562Z" fill="#B80002"/>
<path d="M223.421 862.738L209.936 862.738C193.928 862.738 180.953 849.763 180.953 833.755L180.953 831.263C180.953 815.255 193.928 802.28 209.936 802.28L223.421 802.28C239.429 802.28 252.404 815.255 252.404 831.263L252.404 833.755C252.409 849.763 239.429 862.738 223.421 862.738Z" fill="#B80002"/>
<path d="M489.994 862.738L476.508 862.738C460.5 862.738 447.525 849.763 447.525 833.755L447.525 831.263C447.525 815.255 460.5 802.28 476.508 802.28L489.994 802.28C506.002 802.28 518.977 815.255 518.977 831.263L518.977 833.755C518.977 849.763 506.001 862.738 489.994 862.738Z" fill="#B80002"/>
<path d="M171.718 816.799C158.702 798.336 125.748 795.474 106.409 795.488C98.2494 795.492 91.6376 802.059 91.6376 810.214L91.6376 841.797C91.6376 849.929 98.2268 856.518 106.359 856.518L126.055 856.518L175.008 856.518L232.185 856.518C240.317 856.518 246.906 849.925 246.906 841.797L246.906 837.586C246.906 829.453 240.313 822.864 232.185 822.864L183.588 822.864C178.885 822.864 174.426 820.644 171.718 816.799Z" fill="#D50002"/>
<path d="M541.843 814.736C554.858 796.273 587.813 793.412 607.147 793.425C615.307 793.43 621.919 799.992 621.919 808.152L621.919 839.734C621.919 847.867 615.325 854.456 607.197 854.456L587.502 854.456L538.548 854.456L481.372 854.456C473.239 854.456 466.65 847.867 466.65 839.734L466.65 835.523C466.65 827.391 473.239 820.802 481.372 820.802L529.969 820.802C534.671 820.802 539.13 818.577 541.843 814.736Z" fill="#D50002"/>
<path d="M628.711 973.435L622.79 961.565L93.9678 961.565L88.0466 973.435C68.4056 1012.81 58.0977 1057.06 58.0977 1102.05L58.0977 1497.55L358.377 1497.55L658.66 1497.55L658.66 1102.05C658.66 1057.06 648.357 1012.81 628.711 973.435Z" fill="#242424"/>
<path opacity="0.2" d="M578.508 973.435L573.688 961.565L143.08 961.565L138.26 973.435C122.265 1012.81 113.875 1057.06 113.875 1102.05L113.875 1497.55L358.377 1497.55L602.888 1497.55L602.888 1102.05C602.892 1057.06 594.502 1012.81 578.508 973.435Z" fill="black"/>
<path d="M108.392 973.435L113.867 961.565L93.9685 961.565L88.0474 973.435C68.4064 1012.81 58.0984 1057.06 58.0984 1102.05L58.0984 1497.55L80.7 1497.55L80.7 1102.05C80.6955 1057.06 90.2272 1012.81 108.392 973.435Z" fill="#0B1114"/>
<path d="M628.711 973.435L622.79 961.565L602.892 961.565L608.366 973.435C626.532 1012.81 636.059 1057.06 636.059 1102.05L636.059 1497.55L658.656 1497.55L658.656 1102.05C658.66 1057.06 648.357 1012.81 628.711 973.435Z" fill="#0B1114"/>
<path d="M471.569 803.327C471.569 756.644 448.661 739.151 443.958 714.342L356.436 714.342L270.705 714.342C266.002 739.155 241.302 756.648 241.302 803.327C241.302 904.028 59.1264 814.357 95.8404 1035.29C123.623 1202.48 245.603 1695.54 245.603 1695.54C252.188 1724.56 276.649 1745.02 304.77 1745.02L355.542 1745.02L356.44 1745.02L357.338 1745.02L408.111 1745.02C436.236 1745.02 460.693 1724.56 467.277 1695.54C467.277 1695.54 589.258 1202.48 617.04 1035.29C653.745 814.357 471.569 904.023 471.569 803.327Z" fill="#E60000"/>
<path d="M562.667 984.338L562.667 876.304C520.604 856.582 471.57 855.571 471.57 803.327C471.57 756.644 448.661 739.151 443.959 714.342L356.436 714.342L355.845 714.342L270.705 714.342C266.003 739.155 241.302 756.648 241.302 803.327C241.302 854.831 193.653 856.546 152.002 875.478L152.002 986.663C152.002 1095.1 170.298 1203.22 206.579 1309.16L355.854 1745.02L506.551 1311.31C543.847 1203.95 562.667 1094.31 562.667 984.338Z" fill="#BD1212"/>
<path d="M41.0377 89.3098C34.0785 89.3098 28.4371 94.9512 28.4371 101.91L28.4371 284.018C28.4371 290.978 34.0785 296.624 41.0377 296.624C47.9969 296.624 53.6383 290.982 53.6383 284.018L53.6383 101.91C53.6383 94.9512 47.9969 89.3098 41.0377 89.3098Z" fill="black"/>
<path d="M674.227 89.3098C667.268 89.3098 661.622 94.9512 661.622 101.91L661.622 284.018C661.622 290.978 667.263 296.624 674.227 296.624C681.186 296.624 686.828 290.982 686.828 284.018L686.828 101.91C686.828 94.9512 681.186 89.3098 674.227 89.3098Z" fill="black"/>
<path d="M628.499 76.7715L84.3682 76.7715L84.3682 179.828L628.499 179.828L628.499 76.7715Z" fill="#B80002"/>
<path d="M439.441 362.885L267.582 362.885C260.591 362.885 254.923 357.216 254.923 350.225L254.923 286.609C254.923 279.618 260.591 273.949 267.582 273.949L439.441 273.949C446.432 273.949 452.1 279.618 452.1 286.609L452.1 350.225C452.1 357.216 446.432 362.885 439.441 362.885Z" fill="#242424"/>
<path d="M568.544 476.836L353.513 570.239L138.486 476.836L138.486 442.992L353.513 536.4L568.544 442.992L568.544 476.836Z" fill="#0A0A0A"/>
<path d="M568.544 486.065L353.513 635.675L138.486 486.065L138.486 452.226L353.513 601.835L568.544 452.226L568.544 486.065Z" fill="#242424"/>
<path d="M549.578 442.993L164.48 442.993L164.48 480.632L549.578 480.632L549.578 442.993Z" fill="#383838"/>
<path d="M489.577 494.424L225.092 494.424C215.849 494.424 208.353 486.932 208.353 477.685L208.353 445.466C208.353 436.223 215.849 428.727 225.092 428.727L489.577 428.727C498.82 428.727 506.316 436.218 506.316 445.466L506.316 477.685C506.316 486.932 498.82 494.424 489.577 494.424Z" fill="#242424"/>
<path d="M119.436 336.483L75.2935 336.483C46.852 336.483 23.7946 359.541 23.7946 387.982L23.7946 565.685C23.7946 594.127 46.852 617.184 75.2935 617.184L119.436 617.184C147.878 617.184 170.935 594.127 170.935 565.685L170.935 387.982C170.935 359.541 147.878 336.483 119.436 336.483Z" fill="#242424"/>
<path d="M23.7945 387.982L23.7945 565.685C23.7945 568.583 24.0924 571.408 24.5527 574.174L170.181 574.174C170.642 571.408 170.94 568.583 170.94 565.685L170.94 387.982C170.94 386.836 170.84 385.712 170.768 384.588L23.966 384.588C23.8893 385.716 23.7945 386.836 23.7945 387.982Z" fill="#333333"/>
<path d="M23.7945 430.545L23.7945 525.496C23.7945 527.044 24.0924 528.552 24.5527 530.032L170.181 530.032C170.642 528.552 170.94 527.044 170.94 525.496L170.94 430.545C170.94 429.932 170.84 429.331 170.768 428.731L23.966 428.731C23.8893 429.331 23.7945 429.932 23.7945 430.545Z" fill="#3D3D3D"/>
<path d="M50.6603 610.92C52.5694 611.963 54.5732 612.847 56.6221 613.646L56.6222 340.031C54.5732 340.829 52.5694 341.714 50.6604 342.756L50.6603 610.92Z" fill="#0B1114"/>
<path d="M67.2053 616.489C69.1594 616.796 71.1497 616.995 73.1671 617.08L73.1671 336.591C71.1452 336.673 69.1594 336.871 67.2053 337.178L67.2053 616.489Z" fill="#0B1114"/>
<path d="M144.055 610.92C142.146 611.963 140.137 612.847 138.093 613.646L138.093 340.031C140.142 340.829 142.146 341.714 144.055 342.756L144.055 610.92Z" fill="#0B1114"/>
<path d="M127.505 616.489C125.551 616.796 123.565 616.995 121.543 617.08L121.543 336.591C123.565 336.673 125.551 336.871 127.505 337.178L127.505 616.489Z" fill="#0B1114"/>
<path d="M639.372 336.483L595.23 336.483C566.788 336.483 543.731 359.541 543.731 387.982L543.731 565.685C543.731 594.127 566.788 617.184 595.23 617.184L639.372 617.184C667.814 617.184 690.871 594.127 690.871 565.685L690.871 387.982C690.871 359.541 667.814 336.483 639.372 336.483Z" fill="#242424"/>
<path d="M543.73 387.982L543.73 565.686C543.73 568.583 544.028 571.408 544.489 574.175L690.117 574.175C690.578 571.408 690.876 568.583 690.876 565.686L690.876 387.982C690.876 386.836 690.776 385.712 690.704 384.588L543.902 384.588C543.825 385.717 543.73 386.836 543.73 387.982Z" fill="#333333"/>
<path d="M543.73 430.545L543.73 525.496C543.73 527.044 544.028 528.552 544.489 530.032L690.117 530.032C690.578 528.552 690.876 527.044 690.876 525.496L690.876 430.545C690.876 429.932 690.776 429.331 690.704 428.731L543.902 428.731C543.825 429.331 543.73 429.932 543.73 430.545Z" fill="#3D3D3D"/>
<path d="M570.597 610.92C572.506 611.963 574.51 612.848 576.559 613.646L576.559 340.031C574.51 340.83 572.506 341.714 570.597 342.757L570.597 610.92Z" fill="#0B1114"/>
<path d="M587.142 616.489C589.096 616.796 591.082 616.995 593.104 617.081L593.104 336.592C591.082 336.673 589.096 336.871 587.142 337.178L587.142 616.489Z" fill="#0B1114"/>
<path d="M663.991 610.92C662.082 611.963 660.073 612.848 658.029 613.646L658.029 340.031C660.078 340.83 662.082 341.714 663.991 342.757L663.991 610.92Z" fill="#0B1114"/>
<path d="M647.441 616.489C645.487 616.796 643.502 616.995 641.48 617.081L641.48 336.592C643.502 336.673 645.487 336.871 647.441 337.178L647.441 616.489Z" fill="#0B1114"/>
<path d="M447.525 775.657L267.141 775.657L309.619 45.0182C311.09 19.7448 332.013 2.53519e-05 357.331 2.64586e-05C382.65 2.75653e-05 403.577 19.7448 405.044 45.0182L447.525 775.657Z" fill="#BD1212"/>
<path d="M440.747 775.657L273.915 775.657L313.202 45.0182C314.56 19.7448 333.913 2.57313e-05 357.331 2.67549e-05C380.745 2.77784e-05 400.102 19.7448 401.46 45.0182L440.747 775.657Z" fill="#E60000"/>
<rect x="344.946" y="2.00003" width="24" height="1663" fill="#E6E6E6"/>
<path d="M564.946 1542.16L564.946 1452.52C564.946 1379.45 546.631 1306.6 510.325 1235.22L361.161 942L359.443 944.421L210.11 1233.77C172.777 1306.1 153.946 1379.98 153.946 1454.08L153.946 1541.59C181.692 1547.9 201.868 1556.82 201.868 1576.04C201.868 1607.5 242.451 1619.28 248.938 1636L360.688 1636L360.943 1636L361.51 1636L469.967 1636C476.453 1619.28 519.507 1607.49 519.507 1576.04C519.495 1557.4 538.482 1548.44 564.946 1542.16Z" fill="#E6E6E6"/>
<path opacity="0.2" d="M570.339 76.7722L579.92 110.991C583.133 122.467 588.035 133.403 594.457 143.44L594.556 143.593C598.758 150.169 593.613 158.708 585.837 158.071L447.844 146.743C444.022 146.432 440.745 149.447 440.745 153.283L440.745 179.824L610.433 179.824L645.798 179.824L649.259 179.824L649.259 76.7722L570.339 76.7722Z" fill="black"/>
<path d="M447.932 179.824C447.932 179.824 468.056 213.817 508.399 213.817C537.364 213.817 551.873 221.706 566.473 235.286C581.1 248.888 600.33 256.452 620.305 256.452L645.8 256.452L645.8 171.236L447.932 154.402L447.932 179.824Z" fill="white"/>
<path d="M640.275 296.619L641.259 296.619C659.465 296.619 674.227 281.861 674.227 263.651L674.227 76.7722L579.416 76.7722L588.997 110.991C592.211 122.467 597.112 133.403 603.534 143.44C618.648 167.057 625.693 194.943 623.599 222.902L622.462 238.102C621.717 248.085 623.423 258.1 627.435 267.275L640.275 296.619Z" fill="#242424"/>
<path opacity="0.2" d="M142.533 76.7722L132.952 110.991C129.739 122.467 124.842 133.403 118.415 143.44L118.316 143.593C114.114 150.169 119.259 158.708 127.035 158.071L265.028 146.743C268.851 146.432 272.127 149.447 272.127 153.283L272.127 179.824L102.439 179.824L67.0744 179.824L63.6129 179.824L63.6129 76.7722L142.533 76.7722Z" fill="black"/>
<path d="M264.939 179.824C264.939 179.824 244.815 213.817 204.472 213.817C175.507 213.817 160.997 221.706 146.398 235.286C131.771 248.888 112.54 256.452 92.5652 256.452L67.0707 256.452L67.0707 171.236L264.939 154.402L264.939 179.824Z" fill="white"/>
<path d="M72.598 296.619C53.846 296.619 38.6459 281.419 38.6459 262.667L38.6459 76.7722L133.457 76.7722L123.876 110.991C120.662 122.467 115.766 133.403 109.339 143.44C94.2248 167.057 87.1798 194.943 89.2739 222.902L90.4112 238.102C91.1559 248.085 89.4499 258.1 85.4377 267.275L72.598 296.619Z" fill="#242424"/>
<path d="M477.658 1690.02L239.096 1690.02L239.096 1544.45C239.096 1529.17 251.48 1516.79 266.757 1516.79L449.998 1516.79C465.274 1516.79 477.658 1529.17 477.658 1544.45L477.658 1690.02Z" fill="#333333"/>
<path d="M642.788 1492.06L597.612 1492.06C568.503 1492.06 544.904 1515.66 544.904 1544.77L544.904 1726.64C544.904 1755.75 568.503 1779.35 597.612 1779.35L642.788 1779.35C671.898 1779.35 695.497 1755.75 695.497 1726.64L695.497 1544.77C695.497 1515.66 671.898 1492.06 642.788 1492.06Z" fill="#242424"/>
<path d="M544.904 1544.77L544.904 1726.63C544.904 1729.6 545.206 1732.49 545.68 1735.32L694.72 1735.32C695.19 1732.49 695.497 1729.6 695.497 1726.63L695.497 1544.77C695.497 1543.59 695.397 1542.45 695.321 1541.29L545.08 1541.29C545.003 1542.45 544.904 1543.59 544.904 1544.77Z" fill="#333333"/>
<path d="M544.904 1588.33L544.904 1685.5C544.904 1687.09 545.206 1688.63 545.68 1690.15L694.72 1690.15C695.19 1688.63 695.497 1687.09 695.497 1685.5L695.497 1588.33C695.497 1587.7 695.397 1587.09 695.321 1586.47L545.08 1586.47C545.003 1587.08 544.904 1587.7 544.904 1588.33Z" fill="#3D3D3D"/>
<path d="M572.403 1772.93C574.357 1773.99 576.41 1774.9 578.504 1775.71L578.504 1495.69C576.41 1496.51 574.357 1497.41 572.403 1498.48L572.403 1772.93Z" fill="#0B1114"/>
<path d="M589.335 1778.63C591.335 1778.94 593.37 1779.14 595.437 1779.23L595.437 1492.17C593.37 1492.26 591.335 1492.46 589.335 1492.78L589.335 1778.63Z" fill="#0B1114"/>
<path d="M667.98 1772.93C666.025 1773.99 663.972 1774.9 661.878 1775.71L661.878 1495.69C663.972 1496.51 666.025 1497.41 667.98 1498.48L667.98 1772.93Z" fill="#0B1114"/>
<path d="M651.046 1778.63C649.047 1778.94 647.012 1779.14 644.945 1779.23L644.945 1492.17C647.012 1492.26 649.047 1492.46 651.046 1492.78L651.046 1778.63Z" fill="#0B1114"/>
<path d="M544.722 1595.06L454.74 1566.97C449.911 1565.34 444.157 1567.64 444.157 1571.21L444.157 1583.57C444.157 1585.35 445.673 1586.98 448.092 1587.8L544.722 1618.14L544.722 1595.06Z" fill="#1A1A1A"/>
<path d="M544.722 1645.4L436.042 1608.65C432.021 1607.29 427.237 1609.21 427.237 1612.18L427.237 1622.46C427.237 1623.94 428.501 1625.3 430.509 1625.98L544.722 1664.6L544.722 1645.4Z" fill="#1A1A1A"/>
<path d="M71.4548 1492.06L116.631 1492.06C145.74 1492.06 169.339 1515.66 169.339 1544.77L169.339 1726.64C169.339 1755.75 145.74 1779.35 116.631 1779.35L71.4548 1779.35C42.3453 1779.35 18.7463 1755.75 18.7463 1726.64L18.7463 1544.77C18.7463 1515.66 42.3453 1492.06 71.4548 1492.06Z" fill="#242424"/>
<path d="M169.339 1544.77L169.339 1726.63C169.339 1729.6 169.037 1732.49 168.563 1735.32L19.5226 1735.32C19.0532 1732.49 18.7463 1729.6 18.7463 1726.63L18.7463 1544.77C18.7463 1543.59 18.8456 1542.45 18.9223 1541.29L169.163 1541.29C169.24 1542.45 169.339 1543.59 169.339 1544.77Z" fill="#333333"/>
<path d="M169.339 1588.33L169.339 1685.5C169.339 1687.09 169.037 1688.63 168.563 1690.15L19.5226 1690.15C19.0532 1688.63 18.7463 1687.09 18.7463 1685.5L18.7463 1588.33C18.7463 1587.7 18.8456 1587.08 18.9223 1586.47L169.163 1586.47C169.24 1587.09 169.339 1587.7 169.339 1588.33Z" fill="#3D3D3D"/>
<path d="M141.847 1772.93C139.893 1773.99 137.839 1774.9 135.745 1775.71L135.745 1495.69C137.839 1496.51 139.893 1497.41 141.847 1498.48L141.847 1772.93Z" fill="#0B1114"/>
<path d="M124.909 1778.63C122.91 1778.94 120.875 1779.14 118.808 1779.23L118.808 1492.17C120.875 1492.26 122.91 1492.46 124.909 1492.78L124.909 1778.63Z" fill="#0B1114"/>
<path d="M46.2631 1772.93C48.2173 1773.99 50.2707 1774.9 52.3648 1775.71L52.3648 1495.69C50.2708 1496.51 48.2173 1497.41 46.2631 1498.48L46.2631 1772.93Z" fill="#0B1114"/>
<path d="M63.1958 1778.63C65.1951 1778.94 67.2304 1779.14 69.2974 1779.23L69.2974 1492.17C67.2304 1492.26 65.1951 1492.46 63.1958 1492.78L63.1958 1778.63Z" fill="#0B1114"/>
<path d="M169.526 1595.06L259.508 1566.97C264.337 1565.34 270.091 1567.64 270.091 1571.21L270.091 1583.57C270.091 1585.35 268.575 1586.98 266.156 1587.8L169.526 1618.14L169.526 1595.06Z" fill="#1A1A1A"/>
<path d="M169.526 1645.4L278.206 1608.65C282.227 1607.29 287.011 1609.21 287.011 1612.18L287.011 1622.46C287.011 1623.94 285.747 1625.3 283.739 1625.98L169.526 1664.6L169.526 1645.4Z" fill="#1A1A1A"/>
<path d="M480.999 984.338L480.999 835.528C475.078 827.553 471.571 817.268 471.571 803.322C471.571 756.639 442.15 739.146 437.448 714.337L356.433 714.337L277.21 714.337C272.507 739.15 241.295 756.643 241.295 803.322C241.295 815.801 238.492 825.346 233.659 832.933L233.659 986.653C233.659 1095.09 244.68 1203.21 266.528 1309.15L356.428 1745.01L447.191 1311.3C469.667 1203.95 480.999 1094.31 480.999 984.338Z" fill="#E60000"/>
<path d="M400.083 984.338L400.083 835.528C398.034 827.553 396.824 817.268 396.824 803.322C396.824 756.639 386.656 739.146 385.027 714.337L357.019 714.337L329.633 714.337C328.008 739.15 317.218 756.643 317.218 803.322C317.218 815.801 316.247 825.346 314.577 832.933L314.577 986.653C314.577 1095.09 318.386 1203.21 325.941 1309.15L357.019 1745.01L388.394 1311.3C396.165 1203.95 400.083 1094.31 400.083 984.338Z" fill="#BD1212"/>
<path d="M411.139 1666.92L505.151 1737.17C509.917 1740.73 516.709 1737.34 516.709 1731.38L516.709 1698.69C516.709 1696.41 515.635 1694.26 513.807 1692.89L411.644 1616.55C406.874 1612.99 400.086 1616.38 400.086 1622.34L400.086 1644.85C400.082 1653.54 404.179 1661.72 411.139 1666.92Z" fill="#0B1114"/>
<path d="M306.344 1666.92L212.332 1737.17C207.566 1740.73 200.774 1737.34 200.774 1731.38L200.774 1698.69C200.774 1696.41 201.848 1694.26 203.676 1692.89L305.843 1616.55C310.609 1612.99 317.401 1616.38 317.401 1622.34L317.401 1644.85C317.401 1653.54 313.304 1661.72 306.344 1666.92Z" fill="#0B1114"/>
<path d="M538.554 1859L365.319 1846.84C359.407 1846.43 353.472 1846.43 347.56 1846.84L174.324 1859L174.324 1677.2L334.3 1666.63C349.045 1665.65 363.839 1665.65 378.583 1666.63L538.559 1677.2L538.559 1859L538.554 1859Z" fill="white"/>
<path d="M378.579 1666.63C363.834 1665.66 349.04 1665.66 334.296 1666.63L174.32 1677.2L174.32 1726.19L334.296 1715.62C349.04 1714.65 363.834 1714.65 378.579 1715.62L538.554 1726.19L538.554 1677.2L378.579 1666.63Z" fill="#E0E0E0"/>
<g opacity="0.1">
<path d="M182.833 1753.21C182.833 1725.23 189.49 1698.82 201.242 1675.42L174.321 1677.2L174.321 1859L216.577 1856.04C195.379 1827.25 182.833 1791.7 182.833 1753.21Z" fill="black"/>
<path d="M511.634 1675.42C523.386 1698.83 530.043 1725.24 530.043 1753.21C530.043 1791.7 517.496 1827.25 496.294 1856.04L538.55 1859L538.55 1677.2L511.634 1675.42Z" fill="black"/>
</g>
<path d="M176.257 1912.78C179.213 1912.78 181.614 1910.39 181.614 1907.43L181.614 1676.73C181.614 1673.78 179.217 1671.38 176.257 1671.38L155.564 1671.38C152.419 1671.38 149.95 1674.08 150.23 1677.21L170.922 1907.9C171.171 1910.67 173.486 1912.78 176.257 1912.78Z" fill="#E60000"/>
<path d="M536.618 1912.78C533.662 1912.78 531.261 1910.39 531.261 1907.43L531.261 1676.73C531.261 1673.78 533.657 1671.38 536.618 1671.38L557.31 1671.38C560.456 1671.38 562.925 1674.08 562.645 1677.21L541.952 1907.9C541.704 1910.67 539.389 1912.78 536.618 1912.78Z" fill="#E60000"/>
<path d="M364.593 998.22L352.895 998.22C315.82 998.22 285.762 968.163 285.762 931.088L285.762 738.338C285.762 723.07 298.137 710.695 313.405 710.695L404.082 710.695C419.35 710.695 431.725 723.07 431.725 738.338L431.725 931.088C431.725 968.163 401.668 998.22 364.593 998.22Z" fill="#0B1114"/>
<path d="M364.593 998.22L352.895 998.22C315.82 998.22 285.762 968.163 285.762 931.088L285.762 738.338C285.762 723.07 298.137 710.695 313.405 710.695L404.082 710.695C419.35 710.695 431.725 723.07 431.725 738.338L431.725 931.088C431.725 968.163 401.668 998.22 364.593 998.22Z" fill="#242424"/>
<path d="M357.948 1134.29L356.716 1134.29C348.804 1134.29 342.391 1127.87 342.391 1119.96L342.391 1031.13C342.391 1023.22 348.804 1016.81 356.716 1016.81L357.948 1016.81C365.859 1016.81 372.273 1023.22 372.273 1031.13L372.273 1119.96C372.277 1127.87 365.859 1134.29 357.948 1134.29Z" fill="#0B1114"/>
<path d="M398.242 1031.75L316.428 1031.75C303.995 1031.75 293.917 1041.83 293.917 1054.26L293.917 1096.49C293.917 1108.93 303.995 1119 316.428 1119L398.242 1119C410.675 1119 420.753 1108.93 420.753 1096.49L420.753 1054.26C420.749 1041.83 410.671 1031.75 398.242 1031.75Z" fill="#242424"/>
<path d="M285.543 685.481L250.657 685.481L265.595 632.294C267.03 627.181 271.692 623.651 277 623.651C283.855 623.651 289.275 629.451 288.819 636.288L285.543 685.481Z" fill="#BD1212"/>
<path d="M286.667 691.492L249.06 691.492C247.467 691.492 246.176 690.201 246.176 688.608L246.176 688.36C246.176 686.767 247.467 685.476 249.06 685.476L286.667 685.476C288.261 685.476 289.551 686.767 289.551 688.36L289.551 688.608C289.551 690.201 288.261 691.492 286.667 691.492Z" fill="#242424"/>
<path d="M423.071 685.481L457.958 685.481L443.019 632.294C441.584 627.181 436.922 623.651 431.615 623.651C424.759 623.651 419.339 629.451 419.795 636.288L423.071 685.481Z" fill="#BD1212"/>
<path d="M421.944 691.492L459.547 691.492C461.14 691.492 462.431 690.201 462.431 688.608L462.431 688.36C462.431 686.767 461.14 685.476 459.547 685.476L421.944 685.476C420.351 685.476 419.06 686.767 419.06 688.36L419.06 688.608C419.064 690.201 420.355 691.492 421.944 691.492Z" fill="#242424"/>
<path d="M423.884 717.686C419.353 713.363 413.233 710.695 406.477 710.695L311.012 710.695C304.256 710.695 298.131 713.363 293.605 717.686L423.884 717.686Z" fill="black"/>
<path d="M368.792 712.149L348.695 712.149L348.695 736.11L368.792 736.11L368.792 712.149Z" fill="black"/>
<path d="M431.725 936.901L431.725 802.248C427.6 792.522 417.965 785.703 406.732 785.703L310.923 785.703C299.523 785.703 289.779 792.744 285.762 802.704L285.762 936.901C285.762 970.767 313.216 998.221 347.082 998.221L370.41 998.221C404.272 998.221 431.725 970.767 431.725 936.901Z" fill="black"/>
<path d="M295.338 969.712C299.549 976.337 304.987 982.087 311.346 986.663L339.986 869.548L320.973 864.895L295.338 969.712Z" fill="#BEBEBE"/>
<path d="M334.666 902.351L310.581 896.46L294.456 962.382L318.542 968.273L334.666 902.351Z" fill="white"/>
<path d="M353.649 824.707L329.563 818.816L315.145 877.764L339.231 883.655L353.649 824.707Z" fill="#242424"/>
<path d="M347.889 823.25L335.425 820.201L321.007 879.149L333.47 882.197L347.889 823.25Z" fill="#BEBEBE"/>
<path d="M423.97 966.71L398.602 862.995L379.588 867.648L408.301 985.051C414.655 980.037 420.003 973.818 423.97 966.71Z" fill="#BEBEBE"/>
<path d="M400.969 966.32L425.055 960.428L408.93 894.506L384.845 900.397L400.969 966.32Z" fill="white"/>
<path d="M380.277 881.701L404.362 875.81L389.944 816.863L365.858 822.754L380.277 881.701Z" fill="#242424"/>
<path d="M386.101 880.242L398.569 877.192L384.151 818.244L371.682 821.294L386.101 880.242Z" fill="#BEBEBE"/>
<path d="M431.724 803.995L285.761 803.995L285.761 828.041L431.724 828.041L431.724 803.995Z" fill="#242424"/>
<path d="M406.224 856.409L425.788 847.993L376.915 734.391L357.351 742.808L406.224 856.409Z" fill="#BEBEBE"/>
<path d="M431.725 822.399L397.814 836.99L406.231 856.555L431.725 845.588L431.725 822.399Z" fill="#BEBEBE"/>
<path d="M425.758 848.012L413.168 818.748L393.604 827.164L406.195 856.429L425.758 848.012Z" fill="#858585"/>
<path d="M419.572 844L411.826 825.995L399.787 831.174L407.533 849.179L419.572 844Z" fill="#BEBEBE"/>
<path d="M360.159 742.826L340.595 734.409L291.722 848.011L311.285 856.427L360.159 742.826Z" fill="#BEBEBE"/>
<path d="M285.762 822.4L319.669 836.991L311.252 856.555L285.762 845.588L285.762 822.4Z" fill="#BEBEBE"/>
<path d="M323.878 827.158L304.314 818.741L291.724 848.006L311.287 856.423L323.878 827.158Z" fill="#858585"/>
<path d="M317.699 831.168L305.66 825.988L297.914 843.993L309.953 849.173L317.699 831.168Z" fill="#BEBEBE"/>
<path d="M409.753 754.094C376.117 742.838 341.366 742.838 307.73 754.094C304.142 755.29 300.545 751.878 299.679 746.286C298.812 740.699 301.186 734.981 305 733.708C340.432 721.852 377.047 721.852 412.479 733.708C416.293 734.985 418.667 740.703 417.8 746.286C416.934 751.878 413.341 755.29 409.753 754.094Z" fill="black"/>
</svg>
