<svg width="696" height="1932" viewBox="0 0 696 1932" fill="none" xmlns="http://www.w3.org/2000/svg">
<path d="M162.842 1926.2L162.842 1877.26L193.657 1875.1L197.809 1874.81L328.788 1865.61C334.7 1865.2 340.635 1865.2 346.547 1865.61L477.526 1874.81L483.421 1875.22L512.494 1877.26L512.494 1926.2C512.494 1929.15 514.89 1931.55 517.851 1931.55C520.622 1931.55 522.937 1929.44 523.185 1926.68L536.625 1776.86C541.161 1782.94 546.938 1788.04 553.635 1791.7C555.59 1792.77 557.643 1793.67 559.737 1794.49C563.185 1795.83 566.809 1796.81 570.569 1797.41C572.568 1797.72 574.599 1797.92 576.666 1798.01C577.392 1798.04 578.11 1798.12 578.846 1798.12L624.017 1798.12C650.161 1798.12 671.797 1779.06 675.949 1754.1L675.949 1754.09C676.175 1752.72 676.374 1751.34 676.495 1749.94C676.64 1748.45 676.726 1746.94 676.726 1745.41L676.726 1704.28L676.726 1607.1L676.726 1563.54C676.726 1562.37 676.626 1561.22 676.55 1560.07C675.11 1538.03 660.176 1519.68 639.89 1513.27L639.89 1120.83C639.89 1092.71 635.864 1064.87 628.052 1038.34C623.363 1022.42 617.311 1006.97 609.945 992.205L604.024 980.335L602.124 980.335C600.526 964.865 597.088 952.106 592.272 941.482L592.272 872.653C598.527 870.956 603.153 865.292 603.153 858.5L603.153 826.917C603.153 818.757 596.537 812.195 588.382 812.191C569.048 812.177 536.088 815.039 523.073 833.502C520.36 837.347 515.906 839.572 511.199 839.572L498.228 839.572C494.031 828.74 483.538 821.046 471.222 821.046L457.737 821.046C456.044 821.046 454.392 821.222 452.781 821.501C452.718 807.199 450.516 795.628 447.343 785.767C446.057 781.768 444.612 778.045 443.087 774.529C439.282 765.738 434.995 758.237 431.484 750.917C428.677 745.059 426.361 739.313 425.184 733.108L423.857 710.263L440.776 710.263C442.369 710.263 443.66 708.972 443.66 707.379L443.66 707.13C443.66 705.537 442.369 704.247 440.776 704.247L439.183 704.247L424.245 651.055C423.536 648.528 422.033 646.393 420.057 644.872L417.272 597.011L524.955 522.089L524.955 544.257L524.955 584.446C524.955 585.94 525.04 587.411 525.176 588.869C527.193 612.54 545.205 631.59 568.366 635.25C570.32 635.557 572.306 635.756 574.328 635.842C575.036 635.869 575.736 635.95 576.454 635.95L620.596 635.95C647.544 635.95 669.627 615.239 671.874 588.874C672.014 587.416 672.095 585.945 672.095 584.451L672.095 544.262L672.095 449.311L672.095 406.748C672.095 405.601 671.996 404.482 671.924 403.354C670.168 376.501 647.891 355.249 620.596 355.249L576.454 355.249C575.736 355.249 575.041 355.325 574.328 355.357C572.306 355.438 570.32 355.637 568.366 355.948C544.871 359.663 526.701 379.218 525.126 403.358C525.054 404.487 524.955 405.606 524.955 406.752L524.955 449.315L524.955 461.767L487.288 461.767C486.083 453.706 479.196 447.501 470.802 447.501L408.58 447.501L404.753 381.655L420.67 381.655C427.661 381.655 433.33 375.986 433.33 368.996L433.33 305.379C433.33 298.388 427.661 292.72 420.67 292.72L399.585 292.72L394.115 198.594L421.979 198.594L429.164 198.594C429.164 198.594 449.288 232.587 489.631 232.587C518.596 232.587 533.105 240.476 547.705 254.056C562.332 267.658 581.562 275.222 601.537 275.222L605.207 275.222C606.06 278.914 607.143 282.552 608.668 286.045L621.508 315.393L622.492 315.393C630.624 315.393 638.053 312.437 643.803 307.554C645.685 312.149 650.189 315.393 655.46 315.393C662.419 315.393 668.065 309.752 668.065 302.793L668.065 120.68C668.065 113.721 662.424 108.075 655.46 108.075L655.46 95.5379L630.498 95.5379L551.577 95.5379L388.131 95.5379L386.285 63.7837C384.814 38.5058 363.891 18.7655 338.573 18.7655C313.254 18.7655 292.327 38.5103 290.86 63.7837L289.014 95.5379L123.776 95.5378L44.8558 95.5378L19.8938 95.5378L19.8938 108.319C14.0764 109.438 9.68064 114.538 9.68064 120.68L9.68063 302.788C9.68063 309.748 15.322 315.389 22.2812 315.389C27.1598 315.389 31.3481 312.586 33.4422 308.529C39.1287 312.816 46.1781 315.389 53.8459 315.389L66.6856 286.04C68.2156 282.547 69.2987 278.905 70.1472 275.218L73.8163 275.218C93.7912 275.218 113.022 267.654 127.649 254.051C142.248 240.472 156.758 232.583 185.723 232.583C226.061 232.583 246.19 198.59 246.19 198.59L253.374 198.59L283.03 198.59L277.556 292.715L248.83 292.715C241.839 292.715 236.171 298.384 236.171 305.374L236.171 368.991C236.171 375.982 241.839 381.65 248.83 381.65L272.384 381.65L268.556 447.496L206.334 447.496C197.936 447.496 191.049 453.697 189.848 461.762L152.182 461.762L152.182 449.311L152.182 406.748C152.182 405.601 152.082 404.482 152.01 403.354C150.255 376.501 127.978 355.249 100.683 355.249L56.5401 355.249C55.8225 355.249 55.1276 355.325 54.4145 355.357C52.3927 355.438 50.4068 355.637 48.4527 355.948C24.9575 359.662 6.78778 379.218 5.2127 403.358C5.14049 404.487 5.04123 405.606 5.04123 406.752L5.04123 449.315L5.04123 544.266L5.04122 584.455C5.04122 585.949 5.12237 587.42 5.26228 588.878C7.27963 612.549 25.2914 631.599 48.4527 635.259C50.4068 635.566 52.3927 635.765 54.4145 635.851C55.1231 635.878 55.8225 635.959 56.5401 635.959L100.683 635.959C127.63 635.959 149.713 615.248 151.961 588.883C152.101 587.425 152.182 585.954 152.182 584.46L152.182 544.271L152.182 527.419L259.566 602.133L257.22 642.507C252.35 642.932 248.184 646.289 246.844 651.064L231.906 704.256L230.312 704.256C228.719 704.256 227.429 705.546 227.429 707.14L227.429 707.388C227.429 708.981 228.719 710.272 230.312 710.272L253.284 710.272L251.957 733.117C250.784 739.318 248.356 745.063 245.377 750.921C241.658 758.246 237.073 765.742 232.993 774.534C231.359 778.049 229.807 781.773 228.426 785.771C224.964 795.772 222.554 807.511 222.554 822.097C222.554 823.744 222.5 825.338 222.401 826.886C222.396 826.967 222.383 827.044 222.378 827.125C217.477 823.334 211.348 821.055 204.674 821.055L191.188 821.055C178.159 821.055 167.143 829.652 163.492 841.485C159.303 841.097 155.413 839.048 152.967 835.578C139.951 817.115 106.997 814.253 87.658 814.267C79.4983 814.271 72.8866 820.838 72.8866 828.993L72.8866 860.576C72.8866 864.534 74.4662 868.113 77.0116 870.757L77.0116 950.906L79.3809 950.906C76.0728 960.69 73.7666 972.004 72.7692 985.246L69.2942 992.214C61.9288 1006.98 55.8766 1022.43 51.1875 1038.35C43.3708 1064.88 39.3497 1092.72 39.3497 1120.84L39.3497 1512.61C17.8087 1518.26 1.67891 1537.14 0.176048 1560.07C0.0993252 1561.23 3.03849e-05 1562.37 3.03336e-05 1563.55L2.84295e-05 1607.11L2.41818e-05 1704.28L2.23839e-05 1745.41C2.2317e-05 1746.94 0.085748 1748.45 0.230167 1749.94C2.52733 1776.92 25.1289 1798.12 52.7084 1798.12L97.8846 1798.12C98.6202 1798.12 99.3333 1798.04 100.06 1798.01C102.127 1797.93 104.162 1797.73 106.162 1797.41C109.921 1796.81 113.545 1795.84 116.993 1794.49C119.087 1793.68 121.141 1792.77 123.095 1791.71C129.192 1788.38 134.54 1783.87 138.877 1778.51L152.168 1926.69C152.416 1929.45 154.732 1931.56 157.503 1931.56C160.445 1931.55 162.842 1929.15 162.842 1926.2ZM412.402 513.194L431.371 513.194L412.867 521.231L412.402 513.194ZM264.72 513.194L264.066 524.467L238.116 513.194L264.72 513.194ZM150.571 1681.84L150.756 1681.84L150.756 1683.36L155.26 1681.84L161.425 1681.84C162.53 1688.04 167.052 1693 172.978 1694.82L162.837 1695.49C162.828 1692.53 160.436 1690.15 157.485 1690.15L150.571 1690.15L150.571 1681.84ZM555.513 1516.32C539.108 1524.45 527.568 1540.83 526.309 1560.06C526.232 1561.22 526.133 1562.36 526.133 1563.54L526.133 1607.1L526.133 1644.2L518.564 1644.2C517.743 1638.71 514.281 1634.12 509.488 1631.74L525.947 1636.91L525.947 1613.83L476.759 1598.48C482.762 1573.65 489.432 1545.92 496.491 1516.33L555.513 1516.33L555.513 1516.32ZM469.141 1629.93C469.94 1626.64 470.757 1623.28 471.592 1619.84L504.542 1630.18C503.729 1630.06 502.922 1629.93 502.078 1629.93L469.141 1629.93ZM512.494 1695.49L506.158 1695.07C512.48 1693.48 517.364 1688.33 518.519 1681.84L521.448 1681.84L525.952 1683.36L525.952 1681.84L526.137 1681.84L526.137 1690.15L517.846 1690.15C514.895 1690.15 512.503 1692.54 512.494 1695.49ZM150.571 1607.1L150.571 1563.54C150.571 1562.36 150.471 1561.22 150.395 1560.06C149.135 1540.83 137.595 1524.45 121.19 1516.32L178.836 1516.32C185.935 1546.07 192.637 1573.95 198.667 1598.88L150.756 1613.83L150.756 1636.91L203.839 1620.24C204.637 1623.54 205.423 1626.77 206.19 1629.93L177.866 1629.93C169.467 1629.93 162.58 1636.13 161.375 1644.2L150.571 1644.2L150.571 1607.1ZM414.79 554.24L455.615 536.504L415.386 564.494L414.79 554.24ZM213.867 536.504L262.143 557.476L261.439 569.603L213.867 536.504Z" fill="#090909"/>
<path d="M589.528 1625.43L127.233 1625.43L127.233 1663.07L589.528 1663.07L589.528 1625.43Z" fill="#383838"/>
<path d="M520.849 1676.86L196.637 1676.86C187.394 1676.86 179.898 1669.36 179.898 1660.12L179.898 1627.9C179.898 1618.66 187.39 1611.16 196.637 1611.16L520.849 1611.16C530.092 1611.16 537.588 1618.65 537.588 1627.9L537.588 1660.12C537.588 1669.37 530.092 1676.86 520.849 1676.86Z" fill="#242424"/>
<path d="M248.283 845.561L95.7628 845.561L95.7628 932.127L248.283 932.127L248.283 845.561Z" fill="#B80002"/>
<path d="M611.037 845.562L458.517 845.562L458.517 932.128L611.037 932.128L611.037 845.562Z" fill="#B80002"/>
<path d="M223.42 862.738L209.935 862.738C193.927 862.738 180.952 849.763 180.952 833.755L180.952 831.263C180.952 815.255 193.927 802.28 209.935 802.28L223.42 802.28C239.428 802.28 252.403 815.255 252.403 831.263L252.403 833.755C252.408 849.763 239.428 862.738 223.42 862.738Z" fill="#B80002"/>
<path d="M489.994 862.738L476.508 862.738C460.5 862.738 447.525 849.763 447.525 833.755L447.525 831.263C447.525 815.255 460.5 802.28 476.508 802.28L489.994 802.28C506.002 802.28 518.977 815.255 518.977 831.263L518.977 833.755C518.977 849.763 506.001 862.738 489.994 862.738Z" fill="#B80002"/>
<path d="M171.717 816.799C158.701 798.336 125.747 795.474 106.408 795.488C98.2484 795.492 91.6367 802.059 91.6367 810.214L91.6367 841.797C91.6367 849.929 98.2258 856.518 106.358 856.518L126.054 856.518L175.007 856.518L232.184 856.518C240.316 856.518 246.905 849.925 246.905 841.797L246.905 837.586C246.905 829.453 240.312 822.864 232.184 822.864L183.587 822.864C178.884 822.864 174.425 820.644 171.717 816.799Z" fill="#D50002"/>
<path d="M541.842 814.736C554.858 796.273 587.813 793.412 607.147 793.425C615.306 793.43 621.918 799.992 621.918 808.152L621.918 839.734C621.918 847.867 615.324 854.456 607.196 854.456L587.501 854.456L538.548 854.456L481.371 854.456C473.238 854.456 466.649 847.867 466.649 839.734L466.649 835.523C466.649 827.391 473.239 820.802 481.371 820.802L529.968 820.802C534.671 820.802 539.13 818.577 541.842 814.736Z" fill="#D50002"/>
<path d="M628.711 973.435L622.79 961.565L93.9678 961.565L88.0466 973.435C68.4056 1012.81 58.0977 1057.06 58.0977 1102.05L58.0977 1497.55L358.377 1497.55L658.66 1497.55L658.66 1102.05C658.66 1057.06 648.357 1012.81 628.711 973.435Z" fill="#242424"/>
<path opacity="0.2" d="M578.508 973.435L573.688 961.565L143.08 961.565L138.26 973.435C122.265 1012.81 113.875 1057.06 113.875 1102.05L113.875 1497.55L358.377 1497.55L602.888 1497.55L602.888 1102.05C602.892 1057.06 594.502 1012.81 578.508 973.435Z" fill="black"/>
<path d="M108.392 973.435L113.866 961.565L93.9681 961.565L88.0469 973.435C68.4059 1012.81 58.0979 1057.06 58.0979 1102.05L58.0979 1497.55L80.6995 1497.55L80.6995 1102.05C80.695 1057.06 90.2267 1012.81 108.392 973.435Z" fill="#0B1114"/>
<path d="M628.711 973.435L622.79 961.565L602.891 961.565L608.366 973.435C626.531 1012.81 636.058 1057.06 636.058 1102.05L636.058 1497.55L658.655 1497.55L658.655 1102.05C658.66 1057.06 648.356 1012.81 628.711 973.435Z" fill="#0B1114"/>
<path d="M471.569 803.327C471.569 756.644 448.661 739.151 443.958 714.343L356.435 714.343L270.704 714.343C266.002 739.156 241.302 756.648 241.302 803.327C241.302 904.028 59.1259 814.357 95.8399 1035.29C123.623 1202.48 245.603 1695.54 245.603 1695.54C252.187 1724.56 276.648 1745.02 304.769 1745.02L355.542 1745.02L356.44 1745.02L357.338 1745.02L408.11 1745.02C436.236 1745.02 460.692 1724.56 467.277 1695.54C467.277 1695.54 589.257 1202.48 617.04 1035.29C653.745 814.357 471.569 904.024 471.569 803.327Z" fill="#E60000"/>
<path d="M562.666 984.339L562.666 876.304C520.604 856.582 471.569 855.571 471.569 803.327C471.569 756.644 448.661 739.151 443.958 714.343L356.436 714.343L355.844 714.343L270.705 714.343C266.002 739.156 241.302 756.648 241.302 803.327C241.302 854.831 193.653 856.546 152.001 875.478L152.001 986.663C152.001 1095.1 170.297 1203.22 206.578 1309.16L355.853 1745.02L506.55 1311.31C543.846 1203.96 562.666 1094.31 562.666 984.339Z" fill="#E60000"/>
<path d="M41.0372 89.3097C34.078 89.3097 28.4366 94.9511 28.4366 101.91L28.4366 284.018C28.4366 290.978 34.078 296.623 41.0372 296.623C47.9964 296.623 53.6378 290.982 53.6378 284.018L53.6378 101.91C53.6378 94.9511 47.9964 89.3097 41.0372 89.3097Z" fill="black"/>
<path d="M674.227 89.3097C667.267 89.3097 661.622 94.9511 661.622 101.91L661.622 284.018C661.622 290.978 667.263 296.623 674.227 296.623C681.186 296.623 686.827 290.982 686.827 284.018L686.827 101.91C686.827 94.9511 681.186 89.3097 674.227 89.3097Z" fill="black"/>
<path d="M628.499 76.7715L84.3682 76.7715L84.3682 179.828L628.499 179.828L628.499 76.7715Z" fill="#B80002"/>
<path d="M439.44 362.885L267.582 362.885C260.591 362.885 254.922 357.216 254.922 350.225L254.922 286.609C254.922 279.618 260.591 273.95 267.582 273.95L439.44 273.95C446.431 273.95 452.1 279.618 452.1 286.609L452.1 350.226C452.1 357.216 446.431 362.885 439.44 362.885Z" fill="#242424"/>
<path d="M568.543 476.836L353.512 570.239L138.485 476.836L138.485 442.992L353.512 536.4L568.543 442.992L568.543 476.836Z" fill="#0A0A0A"/>
<path d="M568.543 486.065L353.512 635.675L138.485 486.065L138.485 452.226L353.512 601.835L568.543 452.226L568.543 486.065Z" fill="#242424"/>
<path d="M549.579 442.993L164.481 442.993L164.481 480.632L549.579 480.632L549.579 442.993Z" fill="#383838"/>
<path d="M489.577 494.424L225.092 494.424C215.849 494.424 208.353 486.932 208.353 477.685L208.353 445.466C208.353 436.223 215.849 428.727 225.092 428.727L489.577 428.727C498.82 428.727 506.316 436.218 506.316 445.466L506.316 477.685C506.316 486.932 498.82 494.424 489.577 494.424Z" fill="#242424"/>
<path d="M119.435 336.483L75.2921 336.483C46.8505 336.483 23.7931 359.541 23.7931 387.982L23.7931 565.686C23.7931 594.127 46.8505 617.184 75.2921 617.184L119.435 617.184C147.876 617.185 170.934 594.127 170.934 565.686L170.934 387.982C170.934 359.541 147.876 336.483 119.435 336.483Z" fill="#242424"/>
<path d="M23.7935 387.982L23.7935 565.686C23.7935 568.583 24.0914 571.408 24.5517 574.175L170.18 574.175C170.641 571.408 170.939 568.583 170.939 565.686L170.939 387.982C170.939 386.836 170.839 385.712 170.767 384.588L23.965 384.588C23.8883 385.717 23.7935 386.836 23.7935 387.982Z" fill="#333333"/>
<path d="M23.7935 430.545L23.7935 525.496C23.7935 527.044 24.0914 528.552 24.5517 530.032L170.18 530.032C170.641 528.552 170.939 527.044 170.939 525.496L170.939 430.545C170.939 429.932 170.839 429.331 170.767 428.731L23.965 428.731C23.8883 429.331 23.7935 429.932 23.7935 430.545Z" fill="#3D3D3D"/>
<path d="M50.6594 610.92C52.5684 611.963 54.5722 612.847 56.6212 613.646L56.6212 340.031C54.5722 340.829 52.5684 341.714 50.6594 342.756L50.6594 610.92Z" fill="#0B1114"/>
<path d="M67.2043 616.489C69.1585 616.796 71.1487 616.995 73.1661 617.081L73.1661 336.591C71.1442 336.673 69.1585 336.871 67.2043 337.178L67.2043 616.489Z" fill="#0B1114"/>
<path d="M144.054 610.92C142.145 611.963 140.136 612.847 138.092 613.646L138.092 340.031C140.141 340.829 142.145 341.714 144.054 342.756L144.054 610.92Z" fill="#0B1114"/>
<path d="M127.504 616.489C125.55 616.796 123.564 616.995 121.542 617.081L121.542 336.591C123.564 336.673 125.55 336.871 127.504 337.178L127.504 616.489Z" fill="#0B1114"/>
<path d="M639.372 336.483L595.23 336.483C566.788 336.483 543.731 359.541 543.731 387.982L543.731 565.686C543.731 594.127 566.788 617.184 595.23 617.184L639.372 617.184C667.814 617.185 690.871 594.127 690.871 565.686L690.871 387.982C690.871 359.541 667.814 336.483 639.372 336.483Z" fill="#242424"/>
<path d="M543.73 387.982L543.73 565.686C543.73 568.583 544.028 571.408 544.488 574.175L690.117 574.175C690.577 571.408 690.875 568.583 690.875 565.686L690.875 387.982C690.875 386.836 690.776 385.712 690.704 384.588L543.902 384.588C543.825 385.717 543.73 386.836 543.73 387.982Z" fill="#333333"/>
<path d="M543.73 430.545L543.73 525.496C543.73 527.044 544.028 528.552 544.488 530.032L690.117 530.032C690.577 528.552 690.875 527.044 690.875 525.496L690.875 430.545C690.875 429.932 690.776 429.331 690.704 428.731L543.902 428.731C543.825 429.331 543.73 429.932 543.73 430.545Z" fill="#3D3D3D"/>
<path d="M570.596 610.92C572.505 611.963 574.509 612.847 576.558 613.646L576.558 340.031C574.509 340.829 572.505 341.714 570.596 342.756L570.596 610.92Z" fill="#0B1114"/>
<path d="M587.141 616.489C589.095 616.796 591.081 616.995 593.103 617.081L593.103 336.591C591.081 336.673 589.095 336.871 587.141 337.178L587.141 616.489Z" fill="#0B1114"/>
<path d="M663.99 610.92C662.081 611.963 660.073 612.847 658.029 613.646L658.029 340.031C660.077 340.829 662.081 341.714 663.99 342.756L663.99 610.92Z" fill="#0B1114"/>
<path d="M647.441 616.489C645.486 616.796 643.501 616.995 641.479 617.081L641.479 336.591C643.501 336.673 645.486 336.871 647.441 337.178L647.441 616.489Z" fill="#0B1114"/>
<path d="M447.524 775.657L267.14 775.657L309.618 45.0182C311.089 19.7448 332.012 2.53519e-05 357.33 2.64586e-05C382.649 2.75653e-05 403.576 19.7448 405.043 45.0182L447.524 775.657Z" fill="#BD1212"/>
<path d="M440.746 775.657L273.915 775.657L313.201 45.0182C314.56 19.7448 333.912 2.57312e-05 357.331 2.67549e-05C380.745 2.77783e-05 400.101 19.7448 401.46 45.0182L440.746 775.657Z" fill="#E6E6E6"/>
<rect x="345" y="2.1813" width="24" height="1663" fill="#E60000"/>
<path opacity="0.2" d="M570.338 76.7722L579.92 110.991C583.133 122.467 588.034 133.403 594.456 143.44L594.556 143.593C598.757 150.169 593.612 158.708 585.836 158.071L447.844 146.743C444.021 146.432 440.745 149.447 440.745 153.283L440.745 179.824L610.433 179.824L645.797 179.824L649.259 179.824L649.259 76.7722L570.338 76.7722Z" fill="black"/>
<path d="M447.931 179.824C447.931 179.824 468.055 213.817 508.398 213.817C537.363 213.817 551.872 221.706 566.472 235.286C581.099 248.888 600.329 256.452 620.304 256.452L645.799 256.452L645.799 171.236L447.931 154.402L447.931 179.824Z" fill="white"/>
<path d="M640.275 296.619L641.258 296.619C659.464 296.619 674.227 281.861 674.227 263.651L674.227 76.7722L579.415 76.7722L588.997 110.991C592.21 122.467 597.111 133.403 603.533 143.44C618.648 167.057 625.693 194.943 623.599 222.902L622.461 238.102C621.717 248.085 623.423 258.1 627.435 267.275L640.275 296.619Z" fill="#242424"/>
<path opacity="0.2" d="M142.533 76.7722L132.952 110.991C129.739 122.467 124.842 133.403 118.415 143.44L118.316 143.593C114.114 150.169 119.259 158.708 127.035 158.071L265.028 146.743C268.851 146.432 272.127 149.447 272.127 153.283L272.127 179.824L102.439 179.824L67.0744 179.824L63.6129 179.824L63.6129 76.7722L142.533 76.7722Z" fill="black"/>
<path d="M264.939 179.824C264.939 179.824 244.815 213.817 204.472 213.817C175.507 213.817 160.997 221.706 146.398 235.286C131.771 248.888 112.54 256.452 92.5652 256.452L67.0707 256.452L67.0707 171.236L264.939 154.402L264.939 179.824Z" fill="white"/>
<path d="M72.598 296.619C53.846 296.619 38.6459 281.419 38.6459 262.667L38.6459 76.7722L133.457 76.7722L123.876 110.991C120.662 122.467 115.766 133.403 109.339 143.44C94.2248 167.057 87.1798 194.943 89.2739 222.902L90.4112 238.102C91.1559 248.085 89.4499 258.1 85.4377 267.275L72.598 296.619Z" fill="#242424"/>
<path d="M477.657 1690.02L239.095 1690.02L239.095 1544.45C239.095 1529.17 251.479 1516.78 266.756 1516.78L449.997 1516.78C465.273 1516.78 477.657 1529.17 477.657 1544.45L477.657 1690.02Z" fill="#333333"/>
<path d="M642.788 1492.06L597.612 1492.06C568.502 1492.06 544.903 1515.66 544.903 1544.77L544.903 1726.64C544.903 1755.75 568.502 1779.35 597.612 1779.35L642.788 1779.35C671.897 1779.35 695.496 1755.75 695.496 1726.64L695.496 1544.77C695.496 1515.66 671.897 1492.06 642.788 1492.06Z" fill="#242424"/>
<path d="M544.903 1544.77L544.903 1726.63C544.903 1729.6 545.205 1732.49 545.679 1735.32L694.72 1735.32C695.189 1732.49 695.496 1729.6 695.496 1726.63L695.496 1544.77C695.496 1543.59 695.397 1542.45 695.32 1541.29L545.079 1541.29C545.002 1542.45 544.903 1543.59 544.903 1544.77Z" fill="#333333"/>
<path d="M544.903 1588.33L544.903 1685.5C544.903 1687.09 545.205 1688.63 545.679 1690.15L694.72 1690.15C695.189 1688.63 695.496 1687.09 695.496 1685.5L695.496 1588.33C695.496 1587.7 695.397 1587.09 695.32 1586.47L545.079 1586.47C545.002 1587.09 544.903 1587.7 544.903 1588.33Z" fill="#3D3D3D"/>
<path d="M572.402 1772.93C574.356 1773.99 576.41 1774.9 578.504 1775.72L578.504 1495.69C576.41 1496.51 574.356 1497.41 572.402 1498.48L572.402 1772.93Z" fill="#0B1114"/>
<path d="M589.335 1778.63C591.334 1778.94 593.37 1779.15 595.437 1779.23L595.437 1492.17C593.37 1492.26 591.334 1492.46 589.335 1492.78L589.335 1778.63Z" fill="#0B1114"/>
<path d="M667.98 1772.93C666.025 1773.99 663.972 1774.9 661.878 1775.72L661.878 1495.69C663.972 1496.51 666.025 1497.41 667.98 1498.48L667.98 1772.93Z" fill="#0B1114"/>
<path d="M651.047 1778.63C649.048 1778.94 647.012 1779.15 644.945 1779.23L644.945 1492.17C647.012 1492.26 649.048 1492.46 651.047 1492.78L651.047 1778.63Z" fill="#0B1114"/>
<path d="M544.722 1595.06L454.74 1566.98C449.911 1565.34 444.156 1567.64 444.156 1571.21L444.156 1583.57C444.156 1585.35 445.673 1586.98 448.092 1587.8L544.722 1618.14L544.722 1595.06Z" fill="#1A1A1A"/>
<path d="M544.722 1645.4L436.042 1608.65C432.021 1607.3 427.237 1609.21 427.237 1612.18L427.237 1622.46C427.237 1623.94 428.5 1625.3 430.509 1625.98L544.722 1664.6L544.722 1645.4Z" fill="#1A1A1A"/>
<path d="M71.4553 1492.06L116.631 1492.06C145.741 1492.06 169.34 1515.66 169.34 1544.77L169.34 1726.64C169.34 1755.75 145.741 1779.35 116.631 1779.35L71.4553 1779.35C42.3458 1779.35 18.7468 1755.75 18.7468 1726.64L18.7468 1544.77C18.7468 1515.66 42.3458 1492.06 71.4553 1492.06Z" fill="#242424"/>
<path d="M169.34 1544.77L169.34 1726.63C169.34 1729.6 169.038 1732.49 168.564 1735.32L19.5231 1735.32C19.0537 1732.49 18.7468 1729.6 18.7468 1726.63L18.7468 1544.77C18.7468 1543.59 18.8461 1542.45 18.9228 1541.29L169.164 1541.29C169.241 1542.45 169.34 1543.59 169.34 1544.77Z" fill="#333333"/>
<path d="M169.34 1588.33L169.34 1685.5C169.34 1687.09 169.038 1688.63 168.564 1690.15L19.5231 1690.15C19.0537 1688.63 18.7468 1687.09 18.7468 1685.5L18.7468 1588.33C18.7468 1587.7 18.8461 1587.09 18.9228 1586.47L169.164 1586.47C169.241 1587.09 169.34 1587.7 169.34 1588.33Z" fill="#3D3D3D"/>
<path d="M141.847 1772.93C139.893 1773.99 137.839 1774.9 135.745 1775.72L135.745 1495.69C137.839 1496.51 139.893 1497.41 141.847 1498.48L141.847 1772.93Z" fill="#0B1114"/>
<path d="M124.909 1778.63C122.91 1778.94 120.875 1779.15 118.808 1779.23L118.808 1492.17C120.875 1492.26 122.91 1492.46 124.909 1492.78L124.909 1778.63Z" fill="#0B1114"/>
<path d="M46.2636 1772.93C48.2177 1773.99 50.2712 1774.9 52.3653 1775.72L52.3653 1495.69C50.2712 1496.51 48.2178 1497.41 46.2636 1498.48L46.2636 1772.93Z" fill="#0B1114"/>
<path d="M63.1963 1778.63C65.1956 1778.94 67.2309 1779.15 69.2979 1779.23L69.2979 1492.17C67.2309 1492.26 65.1956 1492.46 63.1963 1492.78L63.1963 1778.63Z" fill="#0B1114"/>
<path d="M169.526 1595.06L259.508 1566.98C264.337 1565.34 270.091 1567.64 270.091 1571.21L270.091 1583.57C270.091 1585.35 268.575 1586.98 266.156 1587.8L169.526 1618.14L169.526 1595.06Z" fill="#1A1A1A"/>
<path d="M169.526 1645.4L278.206 1608.65C282.227 1607.3 287.011 1609.21 287.011 1612.18L287.011 1622.46C287.011 1623.94 285.747 1625.3 283.739 1625.98L169.526 1664.6L169.526 1645.4Z" fill="#1A1A1A"/>
<path d="M480.998 984.338L480.998 835.528C475.077 827.553 471.57 817.268 471.57 803.322C471.57 756.639 442.149 739.146 437.447 714.338L356.432 714.338L277.209 714.338C272.507 739.151 241.294 756.643 241.294 803.322C241.294 815.801 238.491 825.346 233.658 832.933L233.658 986.654C233.658 1095.09 244.679 1203.21 266.527 1309.15L356.428 1745.01L447.19 1311.3C469.666 1203.95 480.998 1094.31 480.998 984.338Z" fill="#E60000"/>
<path d="M400.082 984.338L400.082 835.528C398.033 827.553 396.824 817.268 396.824 803.322C396.824 756.639 386.656 739.146 385.026 714.338L357.018 714.338L329.633 714.338C328.008 739.151 317.217 756.643 317.217 803.322C317.217 815.801 316.247 825.346 314.577 832.933L314.577 986.654C314.577 1095.09 318.386 1203.21 325.941 1309.15L357.018 1745.01L388.393 1311.3C396.165 1203.95 400.082 1094.31 400.082 984.338Z" fill="#E60000"/>
<rect x="345" y="940" width="24" height="742" fill="#E6E6E6"/>
<path d="M411.139 1666.92L505.151 1737.17C509.917 1740.73 516.709 1737.34 516.709 1731.38L516.709 1698.69C516.709 1696.41 515.635 1694.26 513.807 1692.89L411.644 1616.55C406.874 1612.99 400.086 1616.38 400.086 1622.34L400.086 1644.85C400.082 1653.54 404.179 1661.72 411.139 1666.92Z" fill="#0B1114"/>
<path d="M306.344 1666.92L212.332 1737.17C207.566 1740.73 200.774 1737.34 200.774 1731.38L200.774 1698.69C200.774 1696.41 201.848 1694.26 203.676 1692.89L305.843 1616.55C310.609 1612.99 317.401 1616.38 317.401 1622.34L317.401 1644.85C317.401 1653.54 313.304 1661.72 306.344 1666.92Z" fill="#0B1114"/>
<path d="M538.553 1859L365.318 1846.84C359.406 1846.43 353.471 1846.43 347.559 1846.84L174.324 1859L174.324 1677.2L334.299 1666.63C349.044 1665.65 363.838 1665.65 378.582 1666.63L538.558 1677.2L538.558 1859L538.553 1859Z" fill="white"/>
<path d="M378.578 1666.63C363.834 1665.66 349.04 1665.66 334.296 1666.63L174.32 1677.2L174.32 1726.19L334.296 1715.62C349.04 1714.65 363.834 1714.65 378.578 1715.62L538.554 1726.19L538.554 1677.2L378.578 1666.63Z" fill="#E0E0E0"/>
<g opacity="0.1">
<path d="M182.832 1753.21C182.832 1725.23 189.489 1698.82 201.241 1675.42L174.32 1677.2L174.32 1859L216.576 1856.04C195.378 1827.25 182.832 1791.7 182.832 1753.21Z" fill="black"/>
<path d="M511.633 1675.42C523.385 1698.83 530.042 1725.24 530.042 1753.21C530.042 1791.7 517.495 1827.25 496.293 1856.04L538.549 1859L538.549 1677.2L511.633 1675.42Z" fill="black"/>
</g>
<path d="M176.256 1912.78C179.212 1912.78 181.613 1910.39 181.613 1907.42L181.613 1676.73C181.613 1673.78 179.217 1671.38 176.256 1671.38L155.564 1671.38C152.418 1671.38 149.949 1674.08 150.229 1677.21L170.922 1907.9C171.17 1910.67 173.485 1912.78 176.256 1912.78Z" fill="#E60000"/>
<path d="M536.617 1912.78C533.661 1912.78 531.26 1910.39 531.26 1907.42L531.26 1676.73C531.26 1673.78 533.657 1671.38 536.617 1671.38L557.31 1671.38C560.456 1671.38 562.924 1674.08 562.644 1677.21L541.952 1907.9C541.704 1910.67 539.388 1912.78 536.617 1912.78Z" fill="#E60000"/>
<path d="M364.592 998.221L352.894 998.221C315.819 998.221 285.762 968.163 285.762 931.088L285.762 738.338C285.762 723.07 298.137 710.696 313.405 710.696L404.082 710.696C419.35 710.696 431.725 723.071 431.725 738.338L431.725 931.088C431.725 968.163 401.667 998.221 364.592 998.221Z" fill="#0B1114"/>
<path d="M364.592 998.221L352.894 998.221C315.819 998.221 285.762 968.163 285.762 931.088L285.762 738.338C285.762 723.07 298.137 710.696 313.405 710.696L404.082 710.696C419.35 710.696 431.725 723.071 431.725 738.338L431.725 931.088C431.725 968.163 401.667 998.221 364.592 998.221Z" fill="#242424"/>
<path d="M357.948 1134.29L356.716 1134.29C348.804 1134.29 342.391 1127.87 342.391 1119.96L342.391 1031.13C342.391 1023.22 348.804 1016.81 356.716 1016.81L357.948 1016.81C365.859 1016.81 372.273 1023.22 372.273 1031.13L372.273 1119.96C372.277 1127.87 365.859 1134.29 357.948 1134.29Z" fill="#0B1114"/>
<path d="M398.242 1031.75L316.428 1031.75C303.995 1031.75 293.917 1041.83 293.917 1054.26L293.917 1096.49C293.917 1108.93 303.995 1119 316.428 1119L398.242 1119C410.675 1119 420.753 1108.93 420.753 1096.49L420.753 1054.26C420.749 1041.83 410.671 1031.75 398.242 1031.75Z" fill="#242424"/>
<path d="M285.542 685.481L250.656 685.481L265.595 632.294C267.03 627.181 271.692 623.651 276.999 623.651C283.855 623.651 289.275 629.451 288.819 636.288L285.542 685.481Z" fill="#BD1212"/>
<path d="M286.667 691.492L249.059 691.492C247.466 691.492 246.175 690.201 246.175 688.608L246.175 688.36C246.175 686.767 247.466 685.476 249.059 685.476L286.667 685.476C288.26 685.476 289.551 686.767 289.551 688.36L289.551 688.608C289.551 690.201 288.26 691.492 286.667 691.492Z" fill="#242424"/>
<path d="M423.071 685.481L457.957 685.481L443.019 632.294C441.584 627.181 436.922 623.651 431.614 623.651C424.759 623.651 419.339 629.451 419.794 636.288L423.071 685.481Z" fill="#BD1212"/>
<path d="M421.944 691.492L459.547 691.492C461.14 691.492 462.431 690.201 462.431 688.608L462.431 688.36C462.431 686.767 461.14 685.476 459.547 685.476L421.944 685.476C420.351 685.476 419.06 686.767 419.06 688.36L419.06 688.608C419.064 690.201 420.355 691.492 421.944 691.492Z" fill="#242424"/>
<path d="M423.884 717.686C419.353 713.363 413.233 710.696 406.477 710.696L311.011 710.696C304.255 710.696 298.131 713.363 293.604 717.686L423.884 717.686Z" fill="black"/>
<path d="M368.792 712.149L348.695 712.149L348.695 736.11L368.792 736.11L368.792 712.149Z" fill="black"/>
<path d="M431.725 936.901L431.725 802.248C427.6 792.522 417.964 785.703 406.731 785.703L310.923 785.703C299.523 785.703 289.779 792.744 285.762 802.704L285.762 936.901C285.762 970.767 313.215 998.221 347.081 998.221L370.41 998.221C404.272 998.221 431.725 970.767 431.725 936.901Z" fill="black"/>
<path d="M295.337 969.712C299.548 976.337 304.986 982.087 311.345 986.663L339.985 869.548L320.972 864.895L295.337 969.712Z" fill="#BEBEBE"/>
<path d="M334.666 902.351L310.58 896.46L294.456 962.382L318.542 968.274L334.666 902.351Z" fill="white"/>
<path d="M353.648 824.707L329.563 818.816L315.144 877.764L339.23 883.655L353.648 824.707Z" fill="#242424"/>
<path d="M347.888 823.25L335.424 820.201L321.006 879.149L333.469 882.198L347.888 823.25Z" fill="#BEBEBE"/>
<path d="M423.97 966.71L398.602 862.995L379.588 867.648L408.3 985.052C414.655 980.038 420.003 973.819 423.97 966.71Z" fill="#BEBEBE"/>
<path d="M400.968 966.32L425.054 960.428L408.929 894.506L384.844 900.397L400.968 966.32Z" fill="white"/>
<path d="M380.276 881.702L404.361 875.81L389.943 816.863L365.857 822.754L380.276 881.702Z" fill="#242424"/>
<path d="M386.099 880.242L398.567 877.192L384.149 818.244L371.681 821.294L386.099 880.242Z" fill="#BEBEBE"/>
<path d="M431.723 803.995L285.761 803.995L285.761 828.041L431.723 828.041L431.723 803.995Z" fill="#242424"/>
<path d="M406.224 856.41L425.788 847.993L376.915 734.392L357.351 742.808L406.224 856.41Z" fill="#BEBEBE"/>
<path d="M431.725 822.399L397.813 836.99L406.23 856.555L431.725 845.588L431.725 822.399Z" fill="#BEBEBE"/>
<path d="M425.757 848.013L413.167 818.748L393.603 827.165L406.194 856.429L425.757 848.013Z" fill="#858585"/>
<path d="M419.571 844L411.825 825.995L399.786 831.174L407.532 849.179L419.571 844Z" fill="#BEBEBE"/>
<path d="M360.158 742.826L340.595 734.409L291.721 848.011L311.285 856.427L360.158 742.826Z" fill="#BEBEBE"/>
<path d="M285.762 822.4L319.669 836.991L311.252 856.555L285.762 845.588L285.762 822.4Z" fill="#BEBEBE"/>
<path d="M323.877 827.158L304.314 818.741L291.723 848.006L311.287 856.422L323.877 827.158Z" fill="#858585"/>
<path d="M317.699 831.168L305.66 825.988L297.914 843.993L309.953 849.173L317.699 831.168Z" fill="#BEBEBE"/>
<path d="M409.752 754.094C376.116 742.838 341.365 742.838 307.729 754.094C304.141 755.29 300.544 751.878 299.678 746.286C298.811 740.699 301.185 734.981 304.999 733.708C340.431 721.852 377.046 721.852 412.478 733.708C416.292 734.985 418.666 740.703 417.799 746.286C416.933 751.878 413.34 755.29 409.752 754.094Z" fill="black"/>
<rect x="204" y="799.181" width="24" height="742" fill="#E6E6E6"/>
<rect x="486" y="799.181" width="24" height="742" fill="#E6E6E6"/>
</svg>
