<svg width="435" height="298" viewBox="0 0 435 298" fill="none" xmlns="http://www.w3.org/2000/svg">
<path d="M425.94 282.333H4.052C1.814 282.333 0 284.147 0 286.385C0 288.623 1.814 290.438 4.052 290.438H425.94C428.178 290.438 429.993 288.624 429.993 286.385C429.993 284.147 428.178 282.333 425.94 282.333Z" fill="#98989E"/>
<path d="M205.994 278.191H172.833C172.833 278.191 180.09 276.151 182.874 270.497C185.444 265.28 183.802 259.19 183.802 259.19H205.994V278.191Z" fill="#0F0F0F"/>
<path d="M214.087 278.191H184.097L191.896 259.19H214.087V278.191Z" fill="#1A1A1A"/>
<path d="M199.458 239.794L189.925 247.327L181.164 230.522L185.136 227.383L199.458 239.794Z" fill="#980002"/>
<path d="M239.603 209.976L258.914 208.951L263.638 201.16L244.885 202.295L239.603 209.976Z" fill="#0F0F0F"/>
<path d="M238.841 204.877L262.331 203.667C265.979 203.479 268.783 200.37 268.595 196.722L268.59 196.633C268.576 196.352 268.336 196.135 268.054 196.15L244.212 197.378C240.759 197.556 238.103 200.5 238.281 203.953L238.304 204.394C238.32 204.675 238.56 204.891 238.841 204.877Z" fill="#242424"/>
<path d="M393.782 245.055C393.782 245.055 327.182 215.106 297.155 208.072C276.775 203.298 238.759 208.072 238.759 208.072C237.086 208.072 235.73 209.428 235.73 211.101V214.457C235.73 216.107 237.047 217.456 238.697 217.484C242.911 217.557 250.125 217.948 250.125 219.778C250.125 225.103 234.163 222.039 233.504 227.098C224.258 227.098 214.371 227.365 211.378 233.084C200.849 233.725 201.241 236.006 201.241 236.006V279.046H393.782V245.055Z" fill="#E60000"/>
<path opacity="0.2" d="M209.755 233.204C200.897 233.968 201.241 236.006 201.241 236.006V278.191H209.755V233.204Z" fill="black"/>
<path d="M307.333 243.811C249.145 229.875 218.54 232.856 211.378 233.084C209.113 233.222 206.864 233.532 205.497 233.782V245.773C205.497 245.773 246.074 240.406 289.276 246.448C360.102 256.354 386.818 278.19 386.818 278.19C386.818 278.19 371.545 259.19 307.333 243.811Z" fill="#E63030"/>
<path d="M173.277 253.82H170.854V279.616H173.277V253.82Z" fill="#0F0F0F"/>
<path d="M49.454 272.775C59.805 272.775 70.123 271.733 80.264 269.66C90.809 267.505 106.766 264.779 125.409 263.368C161.186 260.66 195.527 269.639 195.527 269.639V236.076C195.527 236.076 148.795 228.024 107.597 236.717C77.616 243.044 41.235 257.031 19.001 265.209C14.91 266.714 15.996 272.774 20.355 272.774H49.454V272.775Z" fill="#E60000"/>
<path d="M86.429 257.304C70.9 260.39 56.896 261.373 46.771 261.373C43.322 261.373 36.661 261.373 29.378 261.373C25.671 262.744 22.187 264.038 19.001 265.21C14.91 266.715 15.996 272.775 20.355 272.775H49.454C59.804 272.775 70.123 271.733 80.264 269.66C90.809 267.505 106.766 264.779 125.409 263.368C153.882 261.213 181.425 266.456 191.493 268.688V256.443C191.493 256.443 127.437 249.156 86.429 257.304Z" fill="#242424"/>
<path d="M96.501 278.191V260.626L48.72 278.191H96.501Z" fill="#0F0F0F"/>
<path d="M139.084 270.282C146.244 255.384 139.972 237.502 125.074 230.342C110.176 223.181 92.2943 229.454 85.1338 244.352C77.9733 259.249 84.2456 277.131 99.1435 284.292C114.041 291.452 131.923 285.18 139.084 270.282Z" fill="#242424"/>
<path d="M112.108 231.449C122.81 231.449 132.386 236.251 138.816 243.811C133.88 234.067 123.778 227.384 112.108 227.384C100.438 227.384 90.336 234.067 85.4 243.811C91.831 236.251 101.406 231.449 112.108 231.449Z" fill="#333333"/>
<path d="M126.575 274.943C136.321 266.952 137.744 252.573 129.754 242.827C121.763 233.08 107.384 231.657 97.6378 239.648C87.8913 247.638 86.4681 262.017 94.4588 271.764C102.45 281.51 116.828 282.933 126.575 274.943Z" stroke="#0F0F0F" stroke-miterlimit="10"/>
<path d="M127.668 273.986C127.36 273.678 127.36 273.179 127.668 272.871C136.248 264.291 136.248 250.331 127.668 241.752C127.36 241.444 127.36 240.945 127.668 240.637C127.976 240.329 128.475 240.329 128.783 240.637C137.977 249.831 137.977 264.792 128.783 273.986C128.475 274.294 127.976 274.294 127.668 273.986Z" fill="#C9A418"/>
<path d="M95.434 273.986C86.24 264.792 86.24 249.831 95.434 240.637C95.742 240.329 96.2409 240.329 96.5489 240.637C96.8569 240.945 96.8569 241.444 96.5489 241.752C87.9689 250.332 87.9689 264.292 96.5489 272.871C96.8569 273.179 96.8569 273.678 96.5489 273.986C96.2409 274.294 95.742 274.294 95.434 273.986Z" fill="#C9A418"/>
<path d="M126.8 264.378C130.7 256.264 127.284 246.525 119.17 242.626C111.056 238.726 101.317 242.142 97.4176 250.256C93.5178 258.369 96.9339 268.108 105.048 272.008C113.161 275.908 122.9 272.492 126.8 264.378Z" fill="black"/>
<path d="M124.954 263.491C128.364 256.396 125.377 247.881 118.283 244.471C111.188 241.062 102.673 244.048 99.2634 251.143C95.8537 258.237 98.8405 266.752 105.935 270.162C113.029 273.572 121.544 270.585 124.954 263.491Z" fill="#1A1A1A"/>
<path d="M112.108 288.096C95.134 288.096 81.324 274.287 81.324 257.312C81.324 240.338 95.133 226.528 112.108 226.528C129.083 226.528 142.892 240.337 142.892 257.312C142.892 274.286 129.083 288.096 112.108 288.096ZM112.108 228.238C96.077 228.238 83.034 241.28 83.034 257.311C83.034 273.342 96.076 286.385 112.108 286.385C128.14 286.385 141.182 273.343 141.182 257.311C141.182 241.281 128.14 228.238 112.108 228.238Z" fill="#0F0F0F"/>
<path d="M112.108 288.096C95.134 288.096 81.324 274.287 81.324 257.312C81.324 240.338 95.133 226.528 112.108 226.528C129.083 226.528 142.892 240.337 142.892 257.312C142.892 274.286 129.083 288.096 112.108 288.096ZM112.108 228.238C96.077 228.238 83.034 241.28 83.034 257.311C83.034 273.342 96.076 286.385 112.108 286.385C128.14 286.385 141.182 273.343 141.182 257.311C141.182 241.281 128.14 228.238 112.108 228.238Z" fill="#0F0F0F"/>
<path d="M128.161 254.363C128.223 254.363 128.283 254.366 128.344 254.367C127.941 252.131 127.096 250.051 125.889 248.225C125.835 248.281 125.784 248.338 125.728 248.394C123.223 250.898 120.246 251.981 119.077 250.813C117.908 249.644 118.991 246.666 121.496 244.162C121.579 244.08 121.663 244.003 121.746 243.923C119.92 242.606 117.823 241.645 115.543 241.163C115.549 241.328 115.555 241.493 115.555 241.661C115.555 245.203 114.215 248.074 112.562 248.074C110.909 248.074 109.569 245.203 109.569 241.661C109.569 241.442 109.574 241.226 109.584 241.013C107.184 241.382 104.951 242.254 103.008 243.54C103.207 243.717 103.405 243.899 103.599 244.094C106.104 246.599 107.186 249.576 106.018 250.745C104.849 251.914 101.871 250.831 99.367 248.326C99.145 248.104 98.938 247.877 98.738 247.649C97.329 249.594 96.334 251.852 95.882 254.306C96.204 254.283 96.53 254.267 96.866 254.267C100.408 254.267 103.279 255.607 103.279 257.26C103.279 258.913 100.408 260.253 96.866 260.253C96.525 260.253 96.192 260.237 95.866 260.213C96.303 262.672 97.28 264.939 98.676 266.893C98.874 266.667 99.079 266.443 99.299 266.222C101.804 263.718 104.781 262.635 105.95 263.803C107.119 264.972 106.036 267.95 103.531 270.454C103.329 270.656 103.123 270.846 102.916 271.029C104.853 272.33 107.086 273.213 109.487 273.597C109.477 273.386 109.472 273.172 109.472 272.955C109.472 269.413 110.812 266.542 112.465 266.542C114.118 266.542 115.458 269.413 115.458 272.955C115.458 273.135 115.452 273.311 115.445 273.487C117.732 273.018 119.837 272.065 121.672 270.757C121.59 270.679 121.508 270.604 121.427 270.523C118.922 268.018 117.84 265.041 119.008 263.872C120.177 262.703 123.155 263.786 125.659 266.291C125.722 266.354 125.779 266.417 125.84 266.48C127.058 264.659 127.915 262.581 128.33 260.346C128.273 260.347 128.218 260.35 128.16 260.35C124.618 260.35 121.747 259.01 121.747 257.357C121.747 255.703 124.619 254.363 128.161 254.363Z" fill="#B4B0AD"/>
<path d="M112.108 274.68C102.532 274.68 94.74 266.889 94.74 257.312C94.74 247.735 102.531 239.944 112.108 239.944C121.685 239.944 129.476 247.735 129.476 257.312C129.476 266.889 121.685 274.68 112.108 274.68ZM112.108 241.654C103.474 241.654 96.451 248.678 96.451 257.311C96.451 265.945 103.475 272.969 112.108 272.969C120.742 272.969 127.765 265.945 127.765 257.311C127.766 248.678 120.742 241.654 112.108 241.654Z" fill="#0F0F0F"/>
<path d="M117.239 257.312C117.239 260.146 114.942 262.443 112.108 262.443C109.274 262.443 106.977 260.146 106.977 257.312C106.977 254.479 109.274 252.181 112.108 252.181C114.942 252.181 117.239 254.478 117.239 257.312Z" fill="#969391"/>
<path d="M116.17 257.312C116.17 259.555 114.351 261.374 112.108 261.374C109.865 261.374 108.046 259.555 108.046 257.312C108.046 255.069 109.864 253.25 112.108 253.25C114.352 253.25 116.17 255.069 116.17 257.312Z" fill="#C9C5C2"/>
<path d="M377.828 278.468H214.296C203 278.468 193.843 269.679 193.843 258.838C193.843 245.818 204.977 235.345 218.541 235.602C230.785 235.835 247.025 236.765 265.977 239.347C364.192 252.728 377.828 278.468 377.828 278.468Z" fill="#BD1212"/>
<path d="M360.009 277.997H212.315C202.113 277.997 193.843 270.059 193.843 260.268C193.843 248.509 203.899 239.05 216.149 239.283C227.208 239.493 241.874 240.334 258.991 242.666C347.694 254.75 360.009 277.997 360.009 277.997Z" fill="#E60000"/>
<path d="M313.119 253.549C313.119 253.549 310.301 252.631 305.138 251.183C299.973 249.749 292.448 247.819 283.045 245.909C273.639 244.003 262.385 242.034 249.776 240.483C243.471 239.728 236.832 239.088 229.931 238.651C226.481 238.432 222.966 238.263 219.396 238.152C218.503 238.128 217.607 238.104 216.708 238.079C215.817 238.048 214.833 238.113 213.895 238.131C212.006 238.318 210.103 238.623 208.28 239.258C203.857 240.661 200.558 243.283 198.281 245.869C196.011 248.505 194.78 251.206 194.156 253.417C193.55 255.645 193.432 257.381 193.487 258.528C193.569 259.681 193.692 260.251 193.844 260.269C193.996 260.287 194.178 259.754 194.377 258.702C194.583 257.652 194.962 256.088 195.691 254.108C196.477 252.152 197.73 249.789 199.855 247.456C200.963 246.342 202.186 245.135 203.746 244.154C204.118 243.884 204.51 243.631 204.935 243.414C205.353 243.188 205.767 242.936 206.207 242.716C207.11 242.323 208.027 241.878 209.04 241.584C210.672 241.011 212.381 240.742 214.077 240.565C214.943 240.553 215.756 240.484 216.657 240.511C217.55 240.531 218.439 240.551 219.326 240.571C222.871 240.664 226.364 240.805 229.794 240.989C236.654 241.356 243.263 241.897 249.547 242.535C262.108 243.849 273.393 245.512 282.82 247.111C292.252 248.716 299.828 250.343 305.044 251.553C310.256 252.777 313.119 253.549 313.119 253.549Z" fill="white"/>
<path d="M393.782 282.479H153.363V282.426C153.363 280.087 155.259 278.191 157.598 278.191H393.782V282.479Z" fill="#0F0F0F"/>
<path d="M19.946 262.633C17.297 262.633 14.921 264.266 13.972 266.739L10.132 276.742H75.103V262.633H19.946Z" fill="#E60000"/>
<path d="M77.447 276.743H10.354C9.54099 276.743 8.88199 277.386 8.88199 278.178V281.044C8.88199 281.837 9.54099 282.479 10.354 282.479H77.446C78.259 282.479 78.918 281.837 78.918 281.044V278.178C78.919 277.385 78.26 276.743 77.447 276.743Z" fill="#0F0F0F"/>
<path d="M72.088 257.788C70.932 257.788 69.865 258.409 69.294 259.414L59.444 276.743H77.401V257.788H72.088Z" fill="#242424"/>
<path opacity="0.2" d="M195.527 269.64V236.077C195.527 236.077 193.665 235.757 190.366 235.313C190.34 235.467 190.311 235.619 190.311 235.782V268.432C193.636 269.147 195.527 269.64 195.527 269.64Z" fill="black"/>
<path d="M375.398 223.036L363.191 240.407H393.062V223.036H375.398Z" fill="#242424"/>
<path d="M391.93 277.331L427.274 255.14V239.944L391.93 247.996V277.331Z" fill="#242424"/>
<path d="M408.462 203.298H375.398V223.036L391.93 246.521V260.019L427.274 243.059V205.862H411.027C409.61 205.863 408.462 204.715 408.462 203.298Z" fill="#D50002"/>
<path d="M405.368 207.044H378.287C377.989 207.044 377.747 206.802 377.747 206.504V206.49C377.747 206.192 377.989 205.95 378.287 205.95H405.368C405.666 205.95 405.908 206.192 405.908 206.49V206.504C405.908 206.802 405.667 207.044 405.368 207.044Z" fill="#242424"/>
<path d="M405.368 210.018H378.287C377.989 210.018 377.747 209.776 377.747 209.478V209.465C377.747 209.167 377.989 208.925 378.287 208.925H405.368C405.666 208.925 405.908 209.167 405.908 209.465V209.478C405.908 209.777 405.667 210.018 405.368 210.018Z" fill="#242424"/>
<path d="M405.368 212.993H378.287C377.989 212.993 377.747 212.751 377.747 212.453V212.439C377.747 212.141 377.989 211.899 378.287 211.899H405.368C405.666 211.899 405.908 212.141 405.908 212.439V212.453C405.908 212.751 405.667 212.993 405.368 212.993Z" fill="#242424"/>
<path d="M427.274 215.271H375.398V221.853H427.274V215.271Z" fill="white"/>
<path d="M248.816 226.69C243.18 226.082 238.367 225.76 234.354 225.601C233.888 226.003 233.583 226.491 233.504 227.098C233.216 227.098 232.925 227.099 232.636 227.1C236.9 227.4 242.213 227.825 248.623 228.514C280.309 231.925 308.434 238.963 328.383 245.115C348.358 251.291 360.269 256.419 360.269 256.419C360.269 256.419 348.543 250.869 328.663 244.241C308.814 237.64 280.675 230.12 248.816 226.69Z" fill="#980002"/>
<path d="M391.827 253.856C391.827 253.856 391.542 253.642 390.97 253.28C390.395 252.922 389.537 252.411 388.409 251.794C386.159 250.55 382.833 248.88 378.673 246.923C370.36 243.004 358.69 237.947 345.77 232.509C319.853 221.816 298.04 215.126 298.04 215.126C298.04 215.126 303.609 216.356 312.461 218.934C321.309 221.511 333.45 225.438 346.471 230.813C359.447 236.275 370.942 241.757 379.085 246.103C383.155 248.272 386.385 250.151 388.556 251.548C389.644 252.241 390.467 252.814 391.015 253.215C391.56 253.62 391.827 253.856 391.827 253.856Z" fill="white"/>
<path d="M191.876 230.871L181.342 231.196C179.456 231.254 177.896 229.741 177.896 227.855V227.838C177.896 226.424 178.785 225.164 180.116 224.689L191.481 220.636C192.182 220.386 192.919 220.906 192.919 221.65V229.795C192.919 230.376 192.457 230.853 191.876 230.871Z" fill="#D50002"/>
<path d="M192.496 231.634H192.471C191.931 231.634 191.493 231.196 191.493 230.655V221.115C191.493 220.575 191.931 220.136 192.471 220.136H192.496C193.036 220.136 193.474 220.574 193.474 221.115V230.655C193.474 231.196 193.036 231.634 192.496 231.634Z" fill="#242424"/>
<path d="M203.522 257.946C203.522 257.946 226.988 274.217 273.573 274.217C344.934 274.217 366.823 264.435 366.823 264.435V278.191H203.522V257.946Z" fill="black"/>
<path d="M203.522 257.946V275.863C206.137 277.224 209.132 277.998 212.315 277.998H360.009C360.009 277.998 357.987 274.184 349.69 268.843C335.587 271.439 311.609 274.218 273.573 274.218C226.987 274.217 203.522 257.946 203.522 257.946Z" fill="#1A1A1A"/>
<path d="M413.308 264.097C417.057 247.999 407.046 231.91 390.948 228.161C374.851 224.412 358.762 234.423 355.013 250.521C351.264 266.619 361.275 282.708 377.373 286.457C393.471 290.206 409.56 280.195 413.308 264.097Z" fill="#242424"/>
<path d="M384.19 231.449C394.892 231.449 404.468 236.251 410.898 243.811C405.962 234.067 395.86 227.384 384.19 227.384C372.52 227.384 362.418 234.067 357.482 243.811C363.912 236.251 373.488 231.449 384.19 231.449Z" fill="#333333"/>
<path d="M393.046 278.317C404.662 273.426 410.113 260.044 405.221 248.429C400.33 236.813 386.948 231.362 375.333 236.254C363.717 241.145 358.266 254.527 363.158 266.142C368.049 277.758 381.431 283.209 393.046 278.317Z" stroke="#0F0F0F" stroke-miterlimit="10"/>
<path d="M399.75 273.986C399.442 273.678 399.442 273.179 399.75 272.871C408.33 264.291 408.33 250.331 399.75 241.752C399.442 241.444 399.442 240.945 399.75 240.637C400.058 240.329 400.557 240.329 400.865 240.637C410.059 249.831 410.059 264.792 400.865 273.986C400.557 274.294 400.057 274.294 399.75 273.986Z" fill="#C9A418"/>
<path d="M367.515 273.986C358.321 264.792 358.321 249.831 367.515 240.637C367.823 240.329 368.322 240.329 368.63 240.637C368.938 240.945 368.938 241.444 368.63 241.752C360.05 250.332 360.05 264.292 368.63 272.871C368.938 273.179 368.938 273.678 368.63 273.986C368.322 274.294 367.823 274.294 367.515 273.986Z" fill="#C9A418"/>
<path d="M400.068 261.056C402.122 252.291 396.682 243.521 387.918 241.467C379.153 239.412 370.383 244.852 368.329 253.617C366.274 262.381 371.714 271.152 380.479 273.206C389.243 275.26 398.014 269.821 400.068 261.056Z" fill="black"/>
<path d="M398.091 260.573C399.889 252.909 395.134 245.239 387.471 243.442C379.807 241.644 372.138 246.399 370.34 254.062C368.542 261.726 373.297 269.395 380.96 271.193C388.624 272.991 396.294 268.236 398.091 260.573Z" fill="#1A1A1A"/>
<path d="M384.19 288.096C367.216 288.096 353.406 274.287 353.406 257.312C353.406 240.338 367.215 226.528 384.19 226.528C401.164 226.528 414.974 240.337 414.974 257.312C414.974 274.286 401.164 288.096 384.19 288.096ZM384.19 228.238C368.159 228.238 355.116 241.28 355.116 257.311C355.116 273.342 368.158 286.385 384.19 286.385C400.221 286.385 413.264 273.343 413.264 257.311C413.263 241.281 400.221 228.238 384.19 228.238Z" fill="#0F0F0F"/>
<path d="M384.19 288.096C367.216 288.096 353.406 274.287 353.406 257.312C353.406 240.338 367.215 226.528 384.19 226.528C401.164 226.528 414.974 240.337 414.974 257.312C414.974 274.286 401.164 288.096 384.19 288.096ZM384.19 228.238C368.159 228.238 355.116 241.28 355.116 257.311C355.116 273.342 368.158 286.385 384.19 286.385C400.221 286.385 413.264 273.343 413.264 257.311C413.263 241.281 400.221 228.238 384.19 228.238Z" fill="#0F0F0F"/>
<path d="M400.242 254.363C400.304 254.363 400.364 254.366 400.425 254.367C400.022 252.131 399.177 250.051 397.97 248.225C397.916 248.281 397.865 248.338 397.809 248.394C395.304 250.898 392.327 251.981 391.158 250.813C389.989 249.644 391.072 246.666 393.577 244.162C393.659 244.08 393.744 244.003 393.827 243.923C392.001 242.606 389.904 241.645 387.624 241.163C387.63 241.328 387.636 241.493 387.636 241.661C387.636 245.203 386.296 248.074 384.643 248.074C382.99 248.074 381.65 245.203 381.65 241.661C381.65 241.442 381.655 241.226 381.665 241.013C379.265 241.382 377.032 242.254 375.089 243.54C375.288 243.717 375.486 243.899 375.68 244.094C378.185 246.599 379.267 249.576 378.099 250.745C376.93 251.914 373.952 250.831 371.448 248.326C371.226 248.104 371.019 247.877 370.819 247.649C369.411 249.594 368.415 251.852 367.963 254.306C368.285 254.283 368.611 254.267 368.947 254.267C372.489 254.267 375.36 255.607 375.36 257.26C375.36 258.913 372.489 260.253 368.947 260.253C368.606 260.253 368.273 260.237 367.947 260.213C368.383 262.672 369.361 264.939 370.757 266.893C370.955 266.667 371.159 266.443 371.38 266.222C373.884 263.718 376.862 262.635 378.031 263.803C379.2 264.972 378.117 267.95 375.612 270.454C375.41 270.656 375.204 270.846 374.997 271.029C376.934 272.33 379.167 273.213 381.568 273.597C381.558 273.386 381.553 273.172 381.553 272.955C381.553 269.413 382.893 266.542 384.546 266.542C386.199 266.542 387.539 269.413 387.539 272.955C387.539 273.135 387.533 273.311 387.526 273.487C389.813 273.018 391.918 272.065 393.753 270.757C393.671 270.679 393.589 270.604 393.508 270.523C391.004 268.018 389.921 265.041 391.089 263.872C392.258 262.703 395.236 263.786 397.74 266.291C397.803 266.354 397.86 266.417 397.921 266.48C399.139 264.659 399.996 262.581 400.411 260.346C400.354 260.347 400.299 260.35 400.241 260.35C396.699 260.35 393.828 259.01 393.828 257.357C393.829 255.703 396.7 254.363 400.242 254.363Z" fill="#B4B0AD"/>
<path d="M384.19 274.68C374.613 274.68 366.822 266.889 366.822 257.312C366.822 247.735 374.613 239.944 384.19 239.944C393.766 239.944 401.558 247.735 401.558 257.312C401.558 266.889 393.766 274.68 384.19 274.68ZM384.19 241.654C375.556 241.654 368.533 248.678 368.533 257.311C368.533 265.945 375.557 272.969 384.19 272.969C392.824 272.969 399.847 265.945 399.847 257.311C399.847 248.678 392.824 241.654 384.19 241.654Z" fill="#0F0F0F"/>
<path d="M389.32 257.312C389.32 260.146 387.023 262.443 384.189 262.443C381.355 262.443 379.058 260.146 379.058 257.312C379.058 254.479 381.355 252.181 384.189 252.181C387.023 252.181 389.32 254.478 389.32 257.312Z" fill="#969391"/>
<path d="M388.252 257.312C388.252 259.555 386.433 261.374 384.19 261.374C381.947 261.374 380.128 259.555 380.128 257.312C380.128 255.069 381.946 253.25 384.19 253.25C386.433 253.25 388.252 255.069 388.252 257.312Z" fill="#C9C5C2"/>
<path opacity="0.2" d="M205.497 233.782C203.433 234.205 202.365 234.712 201.817 235.137V278.191H205.497V233.782Z" fill="black"/>
<path d="M203.522 278.191H191.493V235.782C191.493 233.973 193.187 232.641 194.945 233.068L200.016 234.3C202.073 234.8 203.522 236.642 203.522 238.759V278.191Z" fill="#E60000"/>
<path d="M245.267 255.768C245.267 250.528 241.019 246.28 235.779 246.28C230.539 246.28 226.291 250.528 226.291 255.768C226.291 258.362 227.335 260.709 229.022 262.422V264.898H242.571V262.386C244.237 260.676 245.267 258.343 245.267 255.768Z" fill="#FFAA00"/>
<path d="M432.965 118.024H422.123L421.644 111.196L421.579 110.276L419.541 81.254C419.449 79.944 419.449 78.629 419.541 77.319L421.579 48.297L421.671 46.991L422.123 40.549H432.965C433.62 40.549 434.152 40.018 434.152 39.362C434.152 38.748 433.683 38.235 433.072 38.18L399.876 35.202C401.223 34.197 402.354 32.917 403.164 31.433C403.401 31 403.601 30.545 403.782 30.081C404.08 29.317 404.296 28.514 404.428 27.681C404.498 27.238 404.543 26.788 404.562 26.33C404.569 26.169 404.586 26.01 404.586 25.847V15.838C404.586 10.045 400.364 5.25099 394.832 4.33099H394.831C394.527 4.28099 394.222 4.237 393.91 4.21C393.58 4.178 393.246 4.159 392.907 4.159H383.793H362.261H352.609C352.349 4.159 352.095 4.181 351.839 4.198C346.956 4.517 342.89 7.826 341.471 12.321H254.514C248.283 12.321 242.116 13.213 236.237 14.944C232.71 15.983 229.286 17.324 226.014 18.956L223.384 20.268V20.689C219.956 21.043 217.129 21.805 214.775 22.872H199.524C199.148 21.486 197.893 20.461 196.388 20.461H189.39C187.582 20.461 186.128 21.927 186.127 23.734C186.124 28.018 186.758 35.321 190.849 38.205C191.701 38.806 192.194 39.793 192.194 40.836V43.71C189.794 44.64 188.089 46.965 188.089 49.694V52.682C188.089 53.057 188.128 53.423 188.19 53.78C185.021 53.794 182.457 54.282 180.272 54.985C179.386 55.27 178.561 55.59 177.782 55.928C175.834 56.771 174.172 57.721 172.55 58.499C171.252 59.121 169.979 59.634 168.604 59.895L163.542 60.189V56.44C163.542 56.087 163.256 55.801 162.903 55.801H162.848C162.495 55.801 162.209 56.087 162.209 56.44V56.793L150.423 60.103C149.863 60.26 149.39 60.593 149.053 61.031L138.448 61.648L121.847 37.788H126.759H135.664C135.995 37.788 136.321 37.769 136.644 37.739C141.889 37.292 146.11 33.301 146.921 28.169C146.989 27.736 147.033 27.296 147.052 26.848C147.058 26.691 147.076 26.536 147.076 26.377V16.596C147.076 10.625 142.487 5.73199 136.645 5.23399C136.322 5.20299 135.996 5.185 135.665 5.185H126.76H105.721H96.29C96.036 5.185 95.788 5.207 95.538 5.223C89.588 5.612 84.879 10.548 84.879 16.596V26.377C84.879 26.536 84.896 26.69 84.903 26.848C84.921 27.296 84.965 27.736 85.034 28.169C85.857 33.375 90.19 37.401 95.539 37.75C95.789 37.766 96.037 37.788 96.291 37.788H105.722H108.481V46.134C106.695 46.401 105.32 47.927 105.32 49.787V63.574L90.73 64.422V60.895C90.73 59.346 89.474 58.09 87.925 58.09H73.829C72.28 58.09 71.024 59.346 71.024 60.895V65.567L50.168 66.779V60.605V59.013C50.168 59.013 57.7 54.554 57.7 45.615C57.7 39.197 59.448 35.982 62.457 32.747C65.471 29.506 67.147 25.245 67.147 20.819V20.006C67.965 19.817 68.771 19.577 69.545 19.239L76.048 16.394V16.176C76.048 14.374 75.393 12.728 74.311 11.454C75.329 11.037 76.048 10.039 76.048 8.87099C76.048 7.32899 74.798 6.078 73.256 6.078H32.904C31.362 6.078 30.111 7.32799 30.111 8.87099H27.333V14.402V31.889V68.105L20.297 68.514C14.696 68.84 10.322 73.476 10.322 79.086C10.322 84.696 14.697 89.333 20.297 89.658L27.333 90.067V126.68V144.167V149.698H30.165C30.413 150.987 31.543 151.961 32.904 151.961H73.255C74.797 151.961 76.047 150.711 76.047 149.169C76.047 148.088 75.426 147.16 74.527 146.696C75.477 145.436 76.047 143.874 76.047 142.175L69.544 139.33C68.77 138.991 67.963 138.751 67.146 138.563V137.75C67.146 133.324 65.47 129.063 62.456 125.822C59.447 122.587 57.699 119.372 57.699 112.954C57.699 104.016 50.167 99.556 50.167 99.556V97.964V91.393L71.023 92.606V98.971C71.023 100.52 72.279 101.776 73.828 101.776H87.924C89.473 101.776 90.729 100.52 90.729 98.971V93.752L105.319 94.6V108.387C105.319 110.248 106.693 111.774 108.48 112.04V120.386H105.721H96.29C96.036 120.386 95.788 120.408 95.538 120.424C89.588 120.813 84.879 125.749 84.879 131.797V141.578C84.879 141.737 84.896 141.891 84.903 142.049C84.921 142.497 84.965 142.937 85.034 143.37C85.857 148.576 90.19 152.602 95.539 152.951C95.789 152.967 96.037 152.989 96.291 152.989H105.722H126.761H135.666C135.997 152.989 136.323 152.971 136.646 152.94C141.891 152.493 146.112 148.502 146.923 143.37C146.991 142.937 147.035 142.497 147.054 142.049C147.06 141.892 147.078 141.737 147.078 141.578V131.797C147.078 125.826 142.489 120.933 136.647 120.435C136.324 120.404 135.998 120.386 135.667 120.386H126.762H123.028L139.583 96.592L148.529 97.112C148.623 98.191 149.367 99.114 150.425 99.411L162.211 102.721V103.074C162.211 103.427 162.497 103.713 162.85 103.713H162.905C163.258 103.713 163.544 103.427 163.544 103.074V97.984L168.606 98.278C169.98 98.538 171.253 99.076 172.551 99.736C174.174 100.56 175.835 101.576 177.783 102.48C178.562 102.842 179.387 103.186 180.273 103.492C182.489 104.259 185.09 104.793 188.322 104.793C188.687 104.793 189.04 104.805 189.383 104.827C189.401 104.828 189.418 104.831 189.436 104.832C188.596 105.918 188.091 107.276 188.091 108.755V111.743C188.091 114.63 189.996 117.071 192.618 117.88C192.532 118.808 192.078 119.67 191.309 120.212C187.218 123.096 186.584 130.398 186.587 134.683C186.588 136.491 188.043 137.956 189.85 137.956H196.848C197.725 137.956 198.518 137.606 199.104 137.042H216.863V136.517C219.031 137.25 221.538 137.761 224.472 137.982L226.016 138.752C229.288 140.384 232.711 141.725 236.239 142.764C242.118 144.496 248.285 145.387 254.516 145.387H341.325C342.575 150.16 346.759 153.734 351.84 154.067C352.096 154.084 352.35 154.106 352.61 154.106H362.262H383.794H392.908C393.247 154.106 393.58 154.087 393.911 154.055C399.89 153.546 404.587 148.538 404.587 142.427V132.417C404.587 132.254 404.569 132.096 404.563 131.935C404.544 131.477 404.499 131.026 404.429 130.583C404.297 129.75 404.081 128.947 403.783 128.183C403.602 127.719 403.402 127.264 403.165 126.831C402.428 125.48 401.429 124.295 400.241 123.334L433.074 120.389C433.686 120.334 434.154 119.821 434.154 119.207C434.152 118.555 433.62 118.024 432.965 118.024ZM119.876 62.727V58.524L121.657 62.624L119.876 62.727ZM119.876 95.45L122.374 95.595L119.876 101.345V95.45ZM378.821 120.743V120.702H379.158L378.821 119.704V118.338C380.195 118.093 381.294 117.091 381.697 115.778L381.845 118.025C381.191 118.027 380.662 118.557 380.662 119.211V120.743H378.821ZM342.147 31.017C343.947 34.652 347.577 37.209 351.838 37.488C352.094 37.505 352.348 37.527 352.608 37.527H362.26H370.481V39.204C369.264 39.386 368.248 40.153 367.72 41.215L368.865 37.568H363.753L360.351 48.467C354.85 47.137 348.704 45.659 342.148 44.095V31.017H342.147ZM367.32 50.155C366.591 49.978 365.845 49.797 365.083 49.612L367.375 42.311C367.348 42.491 367.32 42.67 367.32 42.857V50.155ZM381.846 40.549L381.753 41.953C381.4 40.552 380.259 39.47 378.821 39.214V38.565L379.158 37.567H378.821V37.526H380.662V39.363C380.663 40.017 381.192 40.547 381.846 40.549ZM362.26 120.743H352.608C352.348 120.743 352.094 120.765 351.838 120.782C347.577 121.061 343.947 123.618 342.147 127.253V114.48C348.738 112.907 354.915 111.422 360.439 110.086L363.753 120.702H368.865L365.172 108.94C365.904 108.763 366.62 108.589 367.32 108.419V114.695C367.32 116.556 368.694 118.082 370.481 118.349V120.743H362.26ZM128.971 62.198L125.041 53.152L131.243 62.066L128.971 62.198ZM125.041 106.718L129.688 96.021L132.375 96.177L125.041 106.718Z" fill="#98989E"/>
<path d="M366.322 23.4799V125.914H374.662V23.4799H366.322Z" fill="#383838"/>
<path d="M377.718 38.698V110.536C377.718 112.584 376.057 114.245 374.009 114.245H366.87C364.822 114.245 363.161 112.585 363.161 110.536V38.698C363.161 36.65 364.821 34.989 366.87 34.989H374.009C376.058 34.989 377.718 36.65 377.718 38.698Z" fill="#242424"/>
<path d="M193.521 99.0922V132.887H212.702V99.0922H193.521Z" fill="#B80002"/>
<path d="M193.521 18.7141V52.5091H212.702V18.7141H193.521Z" fill="#B80002"/>
<path d="M197.327 104.601V107.589C197.327 111.136 194.452 114.011 190.905 114.011H190.353C186.806 114.011 183.931 111.136 183.931 107.589V104.601C183.931 101.054 186.806 98.179 190.353 98.179H190.905C194.452 98.178 197.327 101.054 197.327 104.601Z" fill="#B80002"/>
<path d="M197.327 45.535V48.523C197.327 52.07 194.452 54.945 190.905 54.945H190.353C186.806 54.945 183.931 52.07 183.931 48.523V45.535C183.931 41.988 186.806 39.113 190.353 39.113H190.905C194.452 39.113 197.327 41.988 197.327 45.535Z" fill="#B80002"/>
<path d="M187.148 116.057C183.057 118.941 182.423 126.243 182.426 130.528C182.427 132.336 183.882 133.801 185.689 133.801H192.687C194.489 133.801 195.949 132.341 195.949 130.539V126.175V115.328V102.659C195.949 100.857 194.488 99.397 192.687 99.397H191.754C189.952 99.397 188.492 100.858 188.492 102.659V113.427C188.492 114.469 188 115.457 187.148 116.057Z" fill="#D50002"/>
<path d="M186.691 34.046C182.6 31.162 181.966 23.86 181.969 19.576C181.97 17.768 183.424 16.303 185.232 16.303H192.23C194.032 16.303 195.492 17.764 195.492 19.565V23.929V34.776V47.445C195.492 49.247 194.032 50.707 192.23 50.707H191.297C189.495 50.707 188.035 49.247 188.035 47.445V36.677C188.035 35.635 187.542 34.647 186.691 34.046Z" fill="#D50002"/>
<path d="M221.855 14.798L219.225 16.11V133.285L221.855 134.597C230.579 138.949 240.385 141.233 250.354 141.233H337.988V74.698V8.16199H250.354C240.385 8.16199 230.579 10.445 221.855 14.798Z" fill="#242424"/>
<path opacity="0.2" d="M221.855 25.922L219.225 26.99V122.403L221.855 123.471C230.579 127.015 240.385 128.874 250.354 128.874H337.988V74.698V20.52H250.354C240.385 20.519 230.579 22.378 221.855 25.922Z" fill="black"/>
<path d="M221.855 130.089L219.225 128.876V133.285L221.855 134.597C230.579 138.949 240.385 141.233 250.354 141.233H337.988V136.225H250.354C240.385 136.226 230.579 134.114 221.855 130.089Z" fill="#0B1114"/>
<path d="M221.855 14.798L219.225 16.11V20.519L221.855 19.306C230.579 15.281 240.385 13.17 250.354 13.17H337.988V8.16296H250.354C240.385 8.16196 230.579 10.445 221.855 14.798Z" fill="#0B1114"/>
<path d="M184.163 49.617C173.819 49.617 169.943 54.693 164.446 55.735V75.128V94.124C169.944 95.166 173.82 100.639 184.163 100.639C206.476 100.639 186.607 141.005 235.56 132.87C272.607 126.714 381.856 99.686 381.856 99.686C388.288 98.227 392.821 92.807 392.821 86.576V75.326V75.127V74.928V63.678C392.821 57.446 388.288 52.027 381.856 50.568C381.856 50.568 272.607 23.54 235.56 17.384C186.607 9.25102 206.475 49.617 184.163 49.617Z" fill="#E60000"/>
<path d="M224.271 29.432H200.333C195.963 38.752 195.739 49.617 184.163 49.617C173.819 49.617 169.943 54.693 164.446 55.735V75.128V75.259V94.124C169.944 95.166 173.82 100.639 184.163 100.639C195.575 100.639 195.955 111.197 200.15 120.426H224.786C248.814 120.426 272.771 116.372 296.243 108.333L392.821 75.257L296.721 41.866C272.933 33.602 248.638 29.432 224.271 29.432Z" fill="#BD1212"/>
<path d="M25.953 145.013C25.953 146.555 27.203 147.805 28.745 147.805H69.096C70.638 147.805 71.889 146.555 71.889 145.013C71.889 143.471 70.639 142.221 69.096 142.221H28.745C27.203 142.221 25.953 143.471 25.953 145.013Z" fill="black"/>
<path d="M25.953 4.71302C25.953 6.25502 27.203 7.50602 28.745 7.50602H69.096C70.638 7.50602 71.889 6.25602 71.889 4.71302C71.889 3.17102 70.639 1.92102 69.096 1.92102H28.745C27.203 1.92102 25.953 3.17102 25.953 4.71302Z" fill="black"/>
<path d="M23.1748 14.8449L23.1748 135.412H46.0098L46.0098 14.8449H23.1748Z" fill="#B80002"/>
<path d="M86.571 56.736V94.816C86.571 96.365 85.315 97.621 83.766 97.621H69.67C68.121 97.621 66.865 96.365 66.865 94.816V56.736C66.865 55.187 68.121 53.931 69.67 53.931H83.766C85.315 53.931 86.571 55.187 86.571 56.736Z" fill="#242424"/>
<path d="M111.82 28.13L132.516 75.776L111.82 123.421H104.321L125.018 75.776L104.321 28.13H111.82Z" fill="#0A0A0A"/>
<path d="M113.865 28.13L147.015 75.776L113.865 123.421H106.367L139.517 75.776L106.367 28.13H113.865Z" fill="#242424"/>
<path d="M104.321 32.3321V117.661H112.661V32.3321H104.321Z" fill="#383838"/>
<path d="M115.717 45.627V104.231C115.717 106.279 114.057 107.94 112.008 107.94H104.869C102.821 107.94 101.16 106.279 101.16 104.231V45.627C101.16 43.579 102.82 41.918 104.869 41.918H112.008C114.057 41.918 115.717 43.579 115.717 45.627Z" fill="#242424"/>
<path d="M80.721 127.642V137.423C80.721 143.725 85.83 148.834 92.132 148.834H131.507C137.809 148.834 142.918 143.725 142.918 137.423V127.642C142.918 121.34 137.809 116.231 131.507 116.231H92.132C85.83 116.231 80.721 121.34 80.721 127.642Z" fill="#242424"/>
<path d="M92.132 148.834H131.507C132.149 148.834 132.775 148.768 133.388 148.666V116.398C132.775 116.296 132.149 116.23 131.507 116.23H92.132C91.878 116.23 91.629 116.252 91.38 116.268V148.796C91.63 148.813 91.878 148.834 92.132 148.834Z" fill="#333333"/>
<path d="M101.563 148.834H122.602C122.945 148.834 123.279 148.768 123.607 148.666V116.398C123.279 116.296 122.945 116.23 122.602 116.23H101.563C101.427 116.23 101.294 116.252 101.161 116.268V148.796C101.294 148.813 101.427 148.834 101.563 148.834Z" fill="#3D3D3D"/>
<path d="M141.53 142.881C141.761 142.458 141.957 142.014 142.134 141.56H81.507C81.684 142.014 81.88 142.458 82.111 142.881H141.53Z" fill="#0B1114"/>
<path d="M142.764 139.215C142.832 138.782 142.876 138.341 142.895 137.894H80.745C80.763 138.342 80.807 138.782 80.875 139.215H142.764Z" fill="#0B1114"/>
<path d="M141.53 122.187C141.761 122.61 141.957 123.055 142.134 123.508H81.507C81.684 123.054 81.88 122.61 82.111 122.187H141.53Z" fill="#0B1114"/>
<path d="M142.764 125.854C142.832 126.287 142.876 126.727 142.895 127.175H80.745C80.763 126.727 80.807 126.287 80.875 125.854H142.764Z" fill="#0B1114"/>
<path d="M80.721 12.436V22.217C80.721 28.519 85.83 33.628 92.132 33.628H131.507C137.809 33.628 142.918 28.519 142.918 22.217V12.436C142.918 6.13397 137.809 1.02496 131.507 1.02496H92.132C85.83 1.02496 80.721 6.13397 80.721 12.436Z" fill="#242424"/>
<path d="M92.132 33.628H131.507C132.149 33.628 132.775 33.562 133.388 33.46V1.19199C132.775 1.08999 132.149 1.02399 131.507 1.02399H92.132C91.878 1.02399 91.629 1.04599 91.38 1.06199V33.59C91.63 33.607 91.878 33.628 92.132 33.628Z" fill="#333333"/>
<path d="M101.563 33.628H122.602C122.945 33.628 123.279 33.562 123.607 33.46V1.19199C123.279 1.08999 122.945 1.02399 122.602 1.02399H101.563C101.427 1.02399 101.294 1.04599 101.161 1.06199V33.59C101.294 33.607 101.427 33.628 101.563 33.628Z" fill="#3D3D3D"/>
<path d="M141.53 27.675C141.761 27.252 141.957 26.808 142.134 26.354H81.507C81.684 26.808 81.88 27.252 82.111 27.675H141.53Z" fill="#0B1114"/>
<path d="M142.764 24.009C142.832 23.576 142.876 23.136 142.895 22.688H80.745C80.763 23.136 80.807 23.576 80.875 24.009H142.764Z" fill="#0B1114"/>
<path d="M141.53 6.98096C141.761 7.40396 141.957 7.84896 142.134 8.30196H81.507C81.684 7.84796 81.88 7.40396 82.111 6.98096H141.53Z" fill="#0B1114"/>
<path d="M142.764 10.6479C142.832 11.0809 142.876 11.5209 142.895 11.9689H80.745C80.763 11.5209 80.807 11.0809 80.875 10.6479H142.764Z" fill="#0B1114"/>
<path d="M178.032 54.945V94.914L16.139 85.502C10.539 85.176 6.164 80.54 6.164 74.93C6.164 69.32 10.539 64.683 16.139 64.358L178.032 54.945Z" fill="#BD1212"/>
<path d="M178.032 56.447V93.413L16.139 84.708C10.539 84.407 6.164 80.119 6.164 74.93C6.164 69.742 10.539 65.453 16.139 65.152L178.032 56.447Z" fill="#E60000"/>
<path opacity="0.2" d="M23.175 27.732L30.757 25.609C33.3 24.897 35.723 23.811 37.947 22.388L37.981 22.366C39.438 21.435 41.33 22.575 41.189 24.298L38.679 54.874C38.61 55.721 39.278 56.447 40.128 56.447H46.009V18.848V11.012V10.245H23.175V27.732Z" fill="black"/>
<path d="M46.009 54.855C46.009 54.855 53.541 50.396 53.541 41.457C53.541 35.039 55.289 31.824 58.298 28.589C61.312 25.348 62.988 21.087 62.988 16.661V11.012H44.106L40.376 54.855H46.009Z" fill="white"/>
<path d="M71.888 12.236V12.018C71.888 7.98401 68.618 4.71301 64.583 4.71301H23.175V25.721L30.757 23.598C33.3 22.886 35.723 21.8 37.947 20.377C43.18 17.028 49.359 15.467 55.554 15.931L58.922 16.183C61.134 16.348 63.353 15.97 65.386 15.081L71.888 12.236Z" fill="#242424"/>
<path opacity="0.2" d="M23.175 122.524L30.757 124.647C33.3 125.359 35.723 126.444 37.947 127.868L37.981 127.89C39.438 128.821 41.33 127.681 41.189 125.958L38.679 95.382C38.61 94.535 39.278 93.809 40.128 93.809H46.009V131.408V139.244V140.011H23.175V122.524Z" fill="black"/>
<path d="M46.009 95.402C46.009 95.402 53.541 99.861 53.541 108.8C53.541 115.218 55.289 118.433 58.298 121.668C61.312 124.909 62.988 129.17 62.988 133.596V139.245H44.106L40.376 95.402H46.009Z" fill="white"/>
<path d="M71.888 138.02C71.888 142.175 68.52 145.543 64.365 145.543H23.175V124.535L30.757 126.658C33.3 127.37 35.723 128.455 37.947 129.879C43.18 133.228 49.359 134.789 55.554 134.325L58.922 134.073C61.134 133.908 63.353 134.286 65.386 135.175L71.888 138.02Z" fill="#242424"/>
<path d="M44.062 83.422C48.789 83.422 52.621 79.59 52.621 74.863C52.621 70.136 48.789 66.304 44.062 66.304C41.722 66.304 39.605 67.246 38.06 68.767H35.826V80.989H38.092C39.635 82.493 41.739 83.422 44.062 83.422Z" fill="#FFAA00"/>
<path d="M380.634 48.268V101.128H348.378C344.993 101.128 342.249 98.384 342.249 94.999V54.397C342.249 51.012 344.993 48.268 348.378 48.268H380.634Z" fill="#333333"/>
<path d="M336.771 11.679V21.689C336.771 28.139 342 33.368 348.45 33.368H388.748C395.198 33.368 400.427 28.139 400.427 21.689V11.679C400.427 5.229 395.198 0 388.748 0H348.45C341.999 0 336.771 5.229 336.771 11.679Z" fill="#242424"/>
<path d="M348.449 33.368H388.747C389.404 33.368 390.044 33.301 390.672 33.196V0.172005C390.044 0.0680047 389.404 0 388.747 0H348.449C348.189 0 347.935 0.0220015 347.679 0.0390015V33.329C347.935 33.346 348.189 33.368 348.449 33.368Z" fill="#333333"/>
<path d="M358.101 33.368H379.633C379.984 33.368 380.326 33.301 380.662 33.196V0.172005C380.327 0.0680047 379.985 0 379.633 0H358.101C357.962 0 357.826 0.0220015 357.69 0.0390015V33.329C357.826 33.346 357.962 33.368 358.101 33.368Z" fill="#3D3D3D"/>
<path d="M399.004 27.275C399.24 26.842 399.441 26.387 399.622 25.923H337.575C337.756 26.387 337.956 26.842 338.193 27.275H399.004Z" fill="#0B1114"/>
<path d="M400.267 23.523C400.337 23.08 400.382 22.629 400.401 22.171H336.795C336.814 22.629 336.859 23.08 336.929 23.523H400.267Z" fill="#0B1114"/>
<path d="M399.004 6.09698C399.24 6.52998 399.441 6.98499 399.622 7.44899H337.575C337.756 6.98499 337.956 6.52998 338.193 6.09698H399.004Z" fill="#0B1114"/>
<path d="M400.267 9.849C400.337 10.292 400.382 10.743 400.401 11.201H336.795C336.814 10.743 336.859 10.292 336.929 9.849H400.267Z" fill="#0B1114"/>
<path d="M359.594 33.408L353.37 53.346C353.008 54.416 353.518 55.691 354.308 55.691H357.046C357.441 55.691 357.803 55.355 357.984 54.819L364.706 33.408H359.594Z" fill="#1A1A1A"/>
<path d="M370.747 33.408L362.605 57.489C362.304 58.38 362.728 59.44 363.386 59.44H365.664C365.993 59.44 366.294 59.16 366.444 58.715L375.001 33.408H370.747Z" fill="#1A1A1A"/>
<path d="M336.771 138.273V128.263C336.771 121.813 342 116.584 348.45 116.584H388.748C395.198 116.584 400.427 121.813 400.427 128.263V138.273C400.427 144.723 395.198 149.952 388.748 149.952H348.45C341.999 149.952 336.771 144.723 336.771 138.273Z" fill="#242424"/>
<path d="M348.449 116.584H388.747C389.404 116.584 390.044 116.651 390.672 116.756V149.78C390.044 149.884 389.404 149.952 388.747 149.952H348.449C348.189 149.952 347.935 149.93 347.679 149.913V116.623C347.935 116.606 348.189 116.584 348.449 116.584Z" fill="#333333"/>
<path d="M358.101 116.584H379.633C379.984 116.584 380.326 116.651 380.662 116.756V149.78C380.327 149.884 379.985 149.952 379.633 149.952H358.101C357.962 149.952 357.826 149.93 357.69 149.913V116.623C357.826 116.606 357.962 116.584 358.101 116.584Z" fill="#3D3D3D"/>
<path d="M399.004 122.676C399.24 123.109 399.441 123.564 399.622 124.028H337.575C337.756 123.564 337.956 123.109 338.193 122.676H399.004Z" fill="#0B1114"/>
<path d="M400.267 126.429C400.337 126.872 400.382 127.323 400.401 127.781H336.795C336.814 127.323 336.859 126.872 336.929 126.429H400.267Z" fill="#0B1114"/>
<path d="M399.004 143.855C399.24 143.422 399.441 142.967 399.622 142.503H337.575C337.756 142.967 337.956 143.422 338.193 143.855H399.004Z" fill="#0B1114"/>
<path d="M400.267 140.103C400.337 139.66 400.382 139.209 400.401 138.751H336.795C336.814 139.209 336.859 139.66 336.929 140.103H400.267Z" fill="#0B1114"/>
<path d="M359.594 116.543L353.37 96.605C353.008 95.535 353.518 94.26 354.308 94.26H357.046C357.441 94.26 357.803 94.596 357.984 95.132L364.706 116.543H359.594Z" fill="#1A1A1A"/>
<path d="M370.747 116.543L362.605 92.462C362.304 91.571 362.728 90.511 363.386 90.511H365.664C365.993 90.511 366.294 90.791 366.444 91.236L375.001 116.543H370.747Z" fill="#1A1A1A"/>
<path d="M195.304 107.94H224.785C248.813 107.94 272.77 104.998 296.242 99.166L392.669 75.205L391.873 74.929L296.72 50.941C272.933 44.944 248.638 41.919 224.271 41.919H195.492C193.417 46.376 190.483 49.617 184.163 49.617C173.819 49.617 169.943 56.136 164.446 57.178V75.129V75.17V75.261V92.683C169.944 93.725 173.82 100.641 184.163 100.641C190.293 100.639 193.239 103.689 195.304 107.94Z" fill="#E6E6E6"/>
<path d="M224.271 47.528H191.298C189.531 48.84 187.252 49.617 184.162 49.617C173.818 49.617 169.942 56.136 164.445 57.178V75.129V92.683C169.943 93.725 173.819 100.641 184.162 100.641C186.927 100.641 189.042 101.262 190.723 102.333H224.784C248.812 102.333 272.769 99.891 296.241 95.05L392.819 75.13L296.719 55.019C272.933 50.039 248.638 47.528 224.271 47.528Z" fill="#E60000"/>
<path d="M224.271 65.457H191.298C189.531 65.911 187.252 66.179 184.162 66.179C173.818 66.179 169.942 68.432 164.445 68.793V74.999V81.067C169.943 81.427 173.819 83.818 184.162 83.818C186.927 83.818 189.042 84.033 190.723 84.403H224.784C248.812 84.403 272.769 83.559 296.241 81.885L392.819 74.999L296.719 68.047C272.933 66.325 248.638 65.457 224.271 65.457Z" fill="#BD1212"/>
<path d="M375.515 63.007L391.082 42.176C391.871 41.12 391.118 39.615 389.799 39.615H382.554C382.049 39.615 381.573 39.853 381.271 40.258L364.354 62.895C363.565 63.952 364.318 65.456 365.637 65.456H370.626C372.551 65.457 374.363 64.549 375.515 63.007Z" fill="#0B1114"/>
<path d="M375.515 86.227L391.082 107.058C391.871 108.114 391.118 109.619 389.799 109.619H382.554C382.049 109.619 381.573 109.381 381.271 108.976L364.354 86.338C363.565 85.282 364.318 83.777 365.637 83.777H370.626C372.551 83.777 374.363 84.685 375.515 86.227Z" fill="#0B1114"/>
<path d="M418.077 34.775L415.382 73.16C415.29 74.47 415.29 75.785 415.382 77.095L418.077 115.48H377.793L375.451 80.033C375.235 76.766 375.235 73.488 375.451 70.221L377.793 34.774H418.077V34.775Z" fill="white"/>
<path d="M375.452 70.222C375.236 73.489 375.236 76.767 375.452 80.034L377.794 115.481H388.649L386.307 80.034C386.091 76.767 386.091 73.489 386.307 70.222L388.649 34.775H377.794L375.452 70.222Z" fill="#E0E0E0"/>
<g opacity="0.1">
<path d="M394.635 113.595C388.436 113.595 382.585 112.12 377.4 109.516L377.794 115.481H418.077L417.42 106.118C411.042 110.815 403.164 113.595 394.635 113.595Z" fill="black"/>
<path d="M377.4 40.74C382.586 38.136 388.437 36.661 394.635 36.661C403.164 36.661 411.041 39.441 417.42 44.139L418.077 34.776H377.794L377.4 40.74Z" fill="black"/>
</g>
<path d="M429.993 115.052C429.993 114.397 429.462 113.865 428.806 113.865H377.69C377.035 113.865 376.503 114.396 376.503 115.052V119.637C376.503 120.334 377.101 120.881 377.796 120.819L428.912 116.234C429.524 116.179 429.993 115.666 429.993 115.052Z" fill="#E60000"/>
<path d="M429.993 35.204C429.993 35.859 429.462 36.391 428.806 36.391H377.69C377.035 36.391 376.503 35.86 376.503 35.204V30.619C376.503 29.922 377.101 29.375 377.796 29.437L428.912 34.022C429.524 34.077 429.993 34.59 429.993 35.204Z" fill="#E60000"/>
<path d="M227.347 73.321V75.913C227.347 84.128 220.687 90.788 212.472 90.788H169.763C166.38 90.788 163.638 88.046 163.638 84.663V64.571C163.638 61.188 166.38 58.446 169.763 58.446H212.472C220.687 58.446 227.347 65.106 227.347 73.321Z" fill="#0B1114"/>
<path d="M227.347 73.321V75.913C227.347 84.128 220.687 90.788 212.472 90.788H169.763C166.38 90.788 163.638 88.046 163.638 84.663V64.571C163.638 61.188 166.38 58.446 169.763 58.446H212.472C220.687 58.446 227.347 65.106 227.347 73.321Z" fill="#242424"/>
<path d="M257.496 74.793V75.066C257.496 76.819 256.075 78.24 254.322 78.24H234.64C232.887 78.24 231.465 76.819 231.465 75.066V74.793C231.465 73.04 232.886 71.619 234.64 71.619H254.322C256.075 71.618 257.496 73.04 257.496 74.793Z" fill="#0B1114"/>
<path d="M234.776 65.865V83.993C234.776 86.748 237.009 88.981 239.764 88.981H249.122C251.877 88.981 254.11 86.748 254.11 83.993V65.865C254.11 63.11 251.877 60.877 249.122 60.877H239.764C237.009 60.878 234.776 63.111 234.776 65.865Z" fill="#242424"/>
<path d="M158.051 90.836V98.566L146.266 95.256C145.133 94.938 144.351 93.905 144.351 92.729C144.351 91.21 145.636 90.009 147.151 90.11L158.051 90.836Z" fill="#BD1212"/>
<path d="M159.383 90.587V98.92C159.383 99.273 159.097 99.559 158.744 99.559H158.689C158.336 99.559 158.05 99.273 158.05 98.92V90.587C158.05 90.234 158.336 89.948 158.689 89.948H158.744C159.097 89.948 159.383 90.234 159.383 90.587Z" fill="#242424"/>
<path d="M158.051 60.363V52.633L146.266 55.943C145.133 56.261 144.351 57.294 144.351 58.47C144.351 59.989 145.636 61.19 147.151 61.089L158.051 60.363Z" fill="#BD1212"/>
<path d="M159.383 60.613V52.281C159.383 51.928 159.097 51.642 158.744 51.642H158.689C158.336 51.642 158.05 51.928 158.05 52.281V60.613C158.05 60.966 158.336 61.252 158.689 61.252H158.744C159.097 61.251 159.383 60.965 159.383 60.613Z" fill="#242424"/>
<path d="M165.187 60.183C164.229 61.187 163.638 62.543 163.638 64.04V85.193C163.638 86.69 164.229 88.047 165.187 89.05V60.183Z" fill="black"/>
<path d="M163.96 72.3904V76.8434H169.269V72.3904H163.96Z" fill="black"/>
<path d="M213.76 58.446H183.924C181.769 59.36 180.258 61.495 180.258 63.984V85.213C180.258 87.739 181.818 89.898 184.025 90.788H213.76C221.264 90.788 227.347 84.705 227.347 77.201V72.032C227.347 64.529 221.264 58.446 213.76 58.446Z" fill="black"/>
<path d="M221.03 88.666C222.498 87.733 223.772 86.528 224.786 85.119L198.836 78.773L197.805 82.986L221.03 88.666Z" fill="#BEBEBE"/>
<path d="M206.105 79.9518L204.799 85.2887L219.406 88.8615L220.711 83.5246L206.105 79.9518Z" fill="white"/>
<path d="M188.9 75.7455L187.595 81.0824L200.656 84.2772L201.962 78.9403L188.9 75.7455Z" fill="#242424"/>
<path d="M188.577 77.0221L187.902 79.7838L200.963 82.9785L201.639 80.2168L188.577 77.0221Z" fill="#BEBEBE"/>
<path d="M220.365 60.164L197.384 65.785L198.415 69.998L224.429 63.636C223.318 62.228 221.94 61.043 220.365 60.164Z" fill="#BEBEBE"/>
<path d="M220.278 65.2608L218.973 59.9239L204.366 63.4967L205.671 68.8336L220.278 65.2608Z" fill="white"/>
<path d="M201.529 69.8459L200.224 64.509L187.162 67.7038L188.468 73.0407L201.529 69.8459Z" fill="#242424"/>
<path d="M201.206 68.555L200.53 65.7924L187.468 68.9871L188.144 71.7498L201.206 68.555Z" fill="#BEBEBE"/>
<path d="M184.311 58.4463V90.7883H189.639V58.4463H184.311Z" fill="#242424"/>
<path d="M195.925 64.0962L194.06 59.7614L168.888 70.5906L170.753 74.9255L195.925 64.0962Z" fill="#BEBEBE"/>
<path d="M188.389 58.446L191.622 65.96L195.957 64.095L193.527 58.446H188.389Z" fill="#BEBEBE"/>
<path d="M194.064 59.7681L187.58 62.5578L189.445 66.8927L195.929 64.103L194.064 59.7681Z" fill="#858585"/>
<path d="M193.175 61.1387L189.186 62.8551L190.333 65.5227L194.323 63.8064L193.175 61.1387Z" fill="#BEBEBE"/>
<path d="M170.757 74.3031L168.892 78.6379L194.064 89.4672L195.929 85.1323L170.757 74.3031Z" fill="#BEBEBE"/>
<path d="M188.389 90.788L191.622 83.275L195.957 85.14L193.527 90.788H188.389Z" fill="#BEBEBE"/>
<path d="M189.443 82.3421L187.578 86.6769L194.063 89.4667L195.928 85.1318L189.443 82.3421Z" fill="#858585"/>
<path d="M190.332 83.7111L189.184 86.3787L193.174 88.0951L194.321 85.4275L190.332 83.7111Z" fill="#BEBEBE"/>
<path d="M173.254 63.314C170.76 70.767 170.76 78.467 173.254 85.92C173.519 86.715 172.763 87.512 171.524 87.704C170.286 87.896 169.019 87.37 168.737 86.525C166.11 78.674 166.11 70.561 168.737 62.71C169.02 61.865 170.287 61.339 171.524 61.531C172.763 61.723 173.519 62.519 173.254 63.314Z" fill="black"/>
</svg>
