<svg width="152" height="72" viewBox="0 0 152 72" fill="none" xmlns="http://www.w3.org/2000/svg">
<path d="M152 5.72205e-06L99 53C84.5 67.5 71.5 71.5 62.5 71.5L0 71.5L27 45.5L49 45.5C62.2 45.5 67 42 74 35.5L79 31L94.75 17.5L53.5 17.5L71 -1.3592e-06L110.5 2.094e-06L152 5.72205e-06Z" fill="#FF1E00"/>
<path d="M152 5.72205e-06L99 53C84.5 67.5 71.5 71.5 62.5 71.5L0 71.5L27 45.5L49 45.5C62.2 45.5 67 42 74 35.5L79 31L94.75 17.5L53.5 17.5L71 -1.3592e-06L110.5 2.094e-06L152 5.72205e-06Z" fill="url(#paint0_linear_1_24)"/>
<defs>
<linearGradient id="paint0_linear_1_24" x1="-131.188" y1="-5.67782e-05" x2="-14.9187" y2="202.79" gradientUnits="userSpaceOnUse">
<stop offset="0.453125" stop-color="#676DFC"/>
<stop offset="0.802083" stop-color="#FF6A54"/>
</linearGradient>
</defs>
</svg>
